<svg xmlns="http://www.w3.org/2000/svg" width="1500" height="980" viewBox="0 0 1500 980"><defs><clipPath id="map"><rect x="36" y="118" width="1428" height="700"/></clipPath><marker id="n" viewBox="0 0 10 10" refX="9" refY="5" markerWidth="8" markerHeight="8" orient="auto"><path d="M0,0 L10,5 L0,10 Z" fill="#1e5f8a"/></marker><marker id="s" viewBox="0 0 10 10" refX="9" refY="5" markerWidth="8" markerHeight="8" orient="auto"><path d="M0,0 L10,5 L0,10 Z" fill="#b85a1a"/></marker><marker id="f" viewBox="0 0 10 10" refX="9" refY="5" markerWidth="8" markerHeight="8" orient="auto"><path d="M0,0 L10,5 L0,10 Z" fill="#8a2e2e"/></marker></defs><rect width="1500" height="980" fill="#faf7ef"/><style>
text{font-family:Arial,sans-serif;fill:#243036}
.place{font-size:16px;font-weight:bold;paint-order:stroke;stroke:#faf7ef;stroke-width:4px}
.year{font-size:13px;fill:#3d474b;paint-order:stroke;stroke:#faf7ef;stroke-width:3px}
.region{font-size:15px;fill:#6e685c;letter-spacing:1px}
.small{font-size:15px;fill:#3d474b}
</style><text x="36" y="42" font-size="28" font-weight="bold">Mahmud's roads from Ghazni, 998-1030</text><text x="36" y="74" font-size="17">Blue: into the northwest and the Ganga plain. Orange: Multan, then the desert, to Somnath in Gujarat. Both lines start at Ghazni and come back.</text><text x="36" y="100" font-size="15" fill="#5c564c">Dashed lines are classroom guides, not the exact path of each army. He did not make Delhi his capital.</text><g clip-path="url(#map)"><rect x="36" y="118" width="1428" height="700" fill="#d7e6ec"/><path d="M-11032.9,4904.4 L-11058.8,4925.3 L-11084.7,4943.9 L-11269.5,4938.2 L-11466.3,4940.7 L-11576.8,4927.0 L-11576.8,4925.3 L-11625.1,4913.2 L-11426.6,4914.9 L-11236.7,4918.9 L-11171.1,4901.9 L-11124.4,4887.4 L-11032.9,4904.4 Z" fill="#efe6d2" stroke="#b7ad98" stroke-width="1"/><path d="M-19815.7,4882.0 L-19984.9,4887.6 L-20100.5,4873.1 L-20152.3,4858.6 L-20155.8,4856.2 L-20212.8,4844.9 L-20212.8,4844.9 L-20159.3,4829.5 L-19995.2,4836.0 L-19907.2,4848.9 L-19839.9,4863.4 L-19815.7,4882.0 Z" fill="#efe6d2" stroke="#b7ad98" stroke-width="1"/><path d="M-9762.1,4822.3 L-9653.3,4840.0 L-9615.3,4865.1 L-9605.0,4882.8 L-9601.5,4903.8 L-9737.9,4916.7 L-9881.2,4927.2 L-10047.0,4936.9 L-10231.7,4944.9 L-10440.6,4942.5 L-10556.3,4928.8 L-10540.7,4911.8 L-10352.5,4900.6 L-10276.6,4886.8 L-10221.3,4869.1 L-10181.6,4853.8 L-10128.1,4839.2 L-10071.1,4822.3 L-10071.1,4822.3 L-10026.2,4822.3 L-9895.0,4813.4 L-9762.1,4822.3 Z" fill="#efe6d2" stroke="#b7ad98" stroke-width="1"/><path d="M-16466.3,4635.1 L-16352.4,4641.6 L-16247.1,4634.3 L-16297.2,4648.8 L-16380.0,4659.3 L-16502.6,4656.1 L-16590.7,4641.6 L-16590.7,4641.6 L-16571.7,4627.8 L-16466.3,4635.1 Z" fill="#efe6d2" stroke="#b7ad98" stroke-width="1"/><path d="M-16849.6,4634.3 L-16715.0,4650.4 L-16766.8,4648.8 L-16880.7,4644.8 L-17001.5,4633.5 L-17001.5,4633.5 L-16937.7,4624.6 L-16849.6,4634.3 Z" fill="#efe6d2" stroke="#b7ad98" stroke-width="1"/><path d="M-14506.8,4570.5 L-14410.1,4576.2 L-14313.5,4571.4 L-14261.7,4594.8 L-14330.7,4591.5 L-14437.8,4593.1 L-14546.5,4591.5 L-14665.7,4593.9 L-14755.4,4585.9 L-14802.0,4568.9 L-14802.0,4568.9 L-14746.8,4561.7 L-14634.6,4567.3 L-14506.8,4570.5 Z" fill="#efe6d2" stroke="#b7ad98" stroke-width="1"/><path d="M-11815.6,4530.3 L-11805.3,4548.9 L-11820.8,4565.0 L-11845.0,4580.3 L-11948.6,4586.0 L-12047.0,4594.0 L-12162.7,4593.2 L-12119.5,4577.1 L-12223.1,4582.7 L-12321.5,4588.4 L-12388.8,4576.3 L-12394.0,4559.3 L-12297.3,4543.2 L-12297.3,4543.2 L-12236.9,4538.4 L-12135.0,4540.0 L-12109.1,4519.0 L-12104.0,4503.7 L-12105.7,4470.6 L-12055.6,4451.2 L-11974.5,4444.8 L-11927.9,4460.1 L-11907.1,4475.4 L-11869.2,4494.0 L-11839.8,4511.7 L-11815.6,4530.3 Z" fill="#efe6d2" stroke="#b7ad98" stroke-width="1"/><path d="M-10948.5,4250.2 L-10986.5,4259.0 L-11052.1,4252.6 L-11124.6,4256.6 L-11185.0,4266.3 L-11248.9,4276.8 L-11292.1,4288.9 L-11304.2,4305.0 L-11299.0,4320.4 L-11257.5,4334.1 L-11318.0,4343.8 L-11400.8,4347.0 L-11449.2,4360.7 L-11501.0,4373.6 L-11556.2,4391.4 L-11570.0,4406.7 L-11539.0,4423.6 L-11492.3,4436.5 L-11419.8,4446.2 L-11352.5,4459.1 L-11316.2,4475.3 L-11297.3,4490.6 L-11271.4,4506.7 L-11229.9,4520.5 L-11204.0,4535.8 L-11191.9,4573.7 L-11166.0,4589.0 L-11159.1,4605.2 L-11131.5,4621.3 L-11143.6,4643.1 L-11191.9,4660.0 L-11243.7,4673.8 L-11361.1,4679.4 L-11400.8,4693.9 L-11454.4,4707.6 L-11587.3,4723.0 L-11704.7,4729.4 L-11815.2,4738.3 L-11934.3,4747.2 L-12005.1,4764.1 L-12146.7,4765.7 L-12302.1,4764.1 L-12441.9,4767.4 L-12590.4,4767.4 L-12562.7,4783.5 L-12428.1,4790.7 L-12329.7,4802.0 L-12274.4,4816.6 L-12372.8,4829.5 L-12524.8,4825.4 L-12650.8,4835.9 L-12656.0,4852.9 L-12659.4,4869.0 L-12555.8,4882.7 L-12536.9,4898.1 L-12424.6,4913.4 L-12238.2,4919.8 L-12079.3,4931.1 L-11953.3,4944.1 L-11792.7,4957.0 L-11573.5,4963.4 L-11357.7,4974.7 L-11207.5,4986.8 L-11043.5,5000.5 L-10957.1,5019.9 L-10914.0,5035.2 L-10806.9,5020.7 L-10661.9,5008.6 L-10508.3,4995.7 L-10325.3,4985.2 L-10168.1,4973.9 L-9948.9,4973.1 L-9733.1,4978.7 L-9555.3,4988.4 L-9498.3,4970.7 L-9375.7,4958.6 L-9153.0,4957.8 L-8978.6,4948.9 L-8812.9,4940.0 L-8629.9,4934.4 L-8434.8,4927.1 L-8298.4,4916.6 L-8360.5,4902.1 L-8398.5,4887.6 L-8398.5,4872.2 L-8569.4,4873.9 L-8750.7,4880.3 L-8923.4,4880.3 L-8947.5,4865.0 L-8935.5,4834.3 L-8895.7,4825.4 L-8769.7,4815.8 L-8621.2,4806.1 L-8514.2,4794.0 L-8407.2,4781.9 L-8327.7,4765.7 L-8206.9,4758.5 L-8087.8,4752.8 L-8027.3,4749.6 L-7890.9,4748.0 L-7761.5,4742.3 L-7652.7,4734.3 L-7545.7,4724.6 L-7449.0,4714.9 L-7326.4,4702.0 L-7248.7,4688.3 L-7165.8,4676.2 L-7139.9,4660.0 L-7233.2,4650.4 L-7202.1,4633.4 L-7143.4,4620.5 L-7051.9,4612.4 L-6955.2,4602.8 L-6865.4,4589.8 L-6796.4,4573.7 L-6753.2,4554.3 L-6689.3,4543.0 L-6584.0,4545.5 L-6540.9,4559.2 L-6435.5,4560.8 L-6432.1,4545.5 L-6387.2,4529.3 L-6292.2,4533.4 L-6269.8,4548.7 L-6164.5,4551.1 L-6050.5,4543.9 L-5940.0,4539.0 L-5839.9,4541.4 L-5801.9,4558.4 L-5705.2,4544.7 L-5615.5,4537.4 L-5515.3,4531.8 L-5416.9,4526.1 L-5327.1,4516.4 L-5228.7,4510.0 L-5152.8,4501.1 L-5099.3,4486.6 L-5033.7,4497.1 L-4942.2,4491.4 L-4878.3,4510.8 L-4828.2,4525.3 L-4728.1,4517.2 L-4688.4,4501.1 L-4598.6,4489.8 L-4482.9,4492.2 L-4448.4,4507.5 L-4375.9,4492.2 L-4280.9,4487.4 L-4177.3,4485.8 L-4084.1,4486.6 L-3985.7,4491.4 L-3890.7,4493.8 L-3849.3,4507.5 L-3792.3,4519.6 L-3695.6,4512.4 L-3592.1,4510.8 L-3491.9,4510.8 L-3393.5,4510.0 L-3305.5,4504.3 L-3212.2,4499.5 L-3134.5,4488.2 L-3051.7,4480.9 L-2961.9,4476.9 L-2894.6,4465.6 L-2846.2,4443.0 L-2796.2,4429.3 L-2704.7,4435.7 L-2670.1,4450.3 L-2594.2,4459.9 L-2502.7,4456.7 L-2440.5,4471.2 L-2374.9,4481.7 L-2285.1,4472.0 L-2254.1,4454.3 L-2174.6,4447.0 L-2083.1,4433.3 L-1996.8,4427.7 L-1893.2,4419.6 L-1824.2,4410.7 L-1751.7,4401.0 L-1682.6,4392.2 L-1599.7,4397.0 L-1520.3,4382.5 L-1463.3,4371.2 L-1380.5,4372.0 L-1308.0,4362.3 L-1290.7,4347.8 L-1216.4,4336.5 L-1143.9,4328.4 L-1055.9,4322.0 L-974.7,4318.7 L-897.1,4321.2 L-814.2,4325.2 L-743.4,4336.5 L-734.8,4354.2 L-657.1,4368.0 L-603.6,4379.3 L-498.2,4384.1 L-439.5,4395.4 L-367.0,4406.7 L-282.4,4409.1 L-211.7,4401.0 L-135.7,4384.1 L-52.8,4393.0 L33.5,4397.8 L116.4,4402.7 L202.7,4405.9 L290.8,4405.9 L363.3,4448.6 L359.8,4459.1 L349.4,4477.7 L264.9,4488.2 L195.8,4503.5 L207.9,4519.6 L306.3,4518.8 L294.2,4535.0 L249.3,4550.3 L207.9,4567.3 L275.2,4580.2 L377.1,4584.2 L478.9,4576.9 L527.3,4560.8 L556.6,4545.5 L605.0,4532.6 L660.2,4520.5 L682.7,4505.9 L729.3,4485.8 L784.5,4481.7 L884.7,4480.1 L972.7,4475.3 L1062.5,4468.8 L1105.6,4452.7 L1131.5,4437.3 L1192.0,4422.0 L1278.3,4411.5 L1352.5,4403.5 L1400.9,4389.7 L1450.9,4382.5 L1514.8,4376.0 L1602.9,4380.1 L1682.3,4376.0 L1768.6,4371.2 L1865.3,4373.6 L1929.2,4362.3 L1974.1,4334.9 L2006.9,4346.2 L2048.3,4365.5 L2122.5,4373.6 L2207.1,4376.8 L2291.7,4372.0 L2381.5,4375.2 L2464.4,4376.0 L2519.6,4372.0 L2593.8,4374.4 L2661.2,4383.3 L2740.6,4377.6 L2835.6,4377.6 L2916.7,4372.0 L3008.2,4377.6 L3066.9,4363.9 L3111.8,4350.2 L3172.2,4338.9 L3282.7,4308.3 L3339.7,4313.9 L3407.0,4325.2 L3465.7,4339.7 L3577.9,4364.7 L3664.3,4365.5 L3745.4,4365.5 L3840.4,4360.7 L3935.3,4355.1 L4007.8,4343.8 L4068.2,4331.7 L4166.7,4330.0 L4232.3,4321.2 L4301.3,4329.2 L4346.2,4342.1 L4408.4,4355.1 L4505.0,4353.4 L4565.5,4363.9 L4670.8,4374.4 L4781.3,4378.5 L4872.8,4375.2 L4941.8,4362.3 L5000.5,4349.4 L5080.0,4346.2 L5159.4,4351.8 L5250.9,4355.9 L5333.7,4349.4 L5413.2,4349.4 L5490.9,4353.4 L5572.0,4357.5 L5651.4,4350.2 L5746.4,4343.8 L5836.1,4342.1 L5936.3,4342.1 L6017.4,4338.1 L6096.8,4334.9 L6121.0,4314.7 L6124.5,4297.8 L6179.7,4309.1 L6195.2,4327.6 L6224.6,4344.6 L6260.9,4358.3 L6335.1,4365.5 L6435.2,4363.1 L6550.9,4362.3 L6630.3,4359.9 L6746.0,4359.9 L6828.9,4359.1 L6944.5,4360.7 L7042.9,4363.9 L7105.1,4376.8 L7087.8,4392.2 L7144.8,4404.3 L7239.8,4414.0 L7338.2,4424.4 L7452.1,4431.7 L7571.2,4438.2 L7661.0,4444.6 L7761.1,4445.4 L7818.1,4431.7 L7895.8,4443.0 L7963.1,4455.9 L8040.8,4465.6 L8147.9,4469.6 L8249.7,4474.5 L8292.9,4490.6 L8393.0,4500.3 L8460.4,4514.8 L8558.8,4521.3 L8660.6,4520.5 L8755.6,4522.9 L8860.9,4522.1 L8966.2,4525.3 L9064.6,4530.9 L9156.1,4540.6 L9247.6,4548.7 L9309.8,4560.8 L9299.4,4576.9 L9252.8,4591.5 L9213.1,4610.0 L9182.0,4624.5 L9140.6,4641.5 L9024.9,4647.9 L8973.1,4662.5 L8859.2,4671.3 L8819.5,4687.5 L8759.0,4702.8 L8695.2,4715.7 L8658.9,4732.7 L8636.5,4748.0 L8627.8,4766.5 L8629.6,4781.9 L8679.6,4798.0 L8698.6,4813.3 L8740.1,4827.9 L8904.1,4833.5 L8938.6,4851.3 L8779.8,4857.7 L8645.1,4866.6 L8477.6,4868.2 L8403.4,4891.6 L8387.9,4911.0 L8349.9,4926.3 L8303.3,4941.6 L8420.7,4955.4 L8465.5,4972.3 L8541.5,4987.6 L8648.5,5001.3 L8771.1,5014.3 L8904.1,5027.2 L9106.1,5040.1 L9150.9,5060.2 L9404.7,5069.1 L9421.8,5072.3 L9487.6,5084.4 L9731.0,5074.0 L9933.0,5086.9 L10084.9,5096.8 L10084.9,5314.5 L-21648.4,5314.5 L-21648.4,5096.8 L-21643.4,5097.1 L-21565.5,5073.2 L-21406.6,5086.1 L-21396.4,5084.6 L-21371.8,5081.2 L-21342.0,5077.0 L-21316.2,5073.3 L-21303.3,5071.5 L-21290.0,5071.6 L-21280.9,5072.3 L-21153.3,5089.4 L-21041.7,5072.3 L-21021.6,5069.9 L-20762.7,5062.7 L-20678.8,5072.3 L-20637.4,5077.2 L-20504.5,5090.9 L-20254.1,5101.4 L-20055.6,5114.3 L-19715.5,5124.0 L-19461.7,5112.7 L-19087.0,5120.8 L-18874.7,5133.7 L-18641.6,5121.6 L-18396.5,5110.3 L-18377.5,5090.9 L-18724.5,5089.3 L-19009.4,5079.6 L-19083.6,5063.5 L-19320.1,5054.6 L-19304.6,5036.0 L-19271.8,5019.1 L-19239.0,5003.8 L-19256.2,4986.8 L-19403.0,4975.5 L-19470.3,4961.0 L-19606.7,4948.1 L-19392.6,4950.5 L-19188.9,4944.1 L-19061.1,4957.8 L-18904.0,4945.7 L-18759.0,4930.3 L-18688.2,4916.6 L-18719.3,4899.7 L-18833.3,4888.4 L-18962.7,4876.3 L-19144.0,4873.9 L-19302.9,4868.2 L-19473.8,4864.2 L-19530.7,4848.8 L-19644.7,4835.9 L-19713.7,4821.4 L-19741.4,4774.6 L-19698.2,4778.7 L-19618.8,4791.6 L-19473.8,4787.5 L-19333.9,4781.9 L-19261.4,4799.6 L-19121.6,4795.6 L-19004.2,4786.7 L-18893.7,4775.4 L-18793.5,4761.7 L-18660.6,4757.7 L-18664.1,4742.3 L-18695.1,4727.0 L-18669.2,4712.5 L-18555.3,4705.2 L-18503.5,4718.9 L-18368.8,4710.9 L-18267.0,4700.4 L-18140.9,4699.6 L-18021.8,4695.5 L-17902.7,4685.9 L-17807.7,4677.0 L-17700.7,4668.1 L-17631.6,4670.5 L-17571.2,4673.8 L-17440.0,4668.1 L-17322.6,4675.4 L-17201.7,4674.6 L-17086.1,4668.9 L-16967.0,4673.0 L-16835.7,4677.0 L-16713.2,4675.4 L-16585.4,4676.2 L-16454.2,4677.0 L-16333.3,4675.4 L-16243.6,4663.3 L-16136.5,4656.8 L-16026.0,4665.7 L-15920.7,4658.4 L-15825.8,4643.9 L-15768.8,4656.8 L-15737.7,4671.3 L-15680.7,4685.1 L-15589.2,4673.0 L-15483.9,4688.3 L-15364.8,4693.1 L-15262.9,4704.4 L-15138.6,4702.0 L-15026.4,4694.7 L-14893.5,4696.3 L-14774.3,4702.0 L-14653.5,4709.3 L-14606.9,4691.5 L-14663.9,4677.8 L-14707.0,4663.3 L-14821.0,4660.0 L-14871.0,4644.7 L-14890.0,4629.4 L-14921.1,4598.7 L-14853.8,4604.4 L-14738.1,4606.8 L-14624.1,4604.4 L-14520.6,4610.8 L-14430.8,4622.9 L-14392.8,4637.4 L-14273.7,4639.9 L-14159.7,4634.2 L-14038.9,4626.2 L-13930.1,4621.3 L-13840.3,4631.0 L-13722.9,4627.8 L-13647.0,4596.3 L-13576.2,4614.9 L-13474.3,4622.1 L-13363.8,4618.1 L-13291.3,4634.2 L-13175.6,4635.8 L-13068.6,4640.7 L-12963.3,4649.6 L-12894.2,4634.2 L-12859.7,4619.7 L-12771.7,4635.8 L-12650.8,4631.8 L-12561.0,4640.7 L-12500.6,4654.4 L-12383.2,4650.4 L-12291.7,4641.5 L-12201.9,4631.0 L-12094.9,4625.3 L-11970.6,4620.5 L-11858.4,4614.9 L-11772.0,4606.0 L-11720.2,4593.1 L-11699.5,4575.3 L-11709.9,4558.4 L-11737.5,4542.2 L-11768.6,4526.1 L-11796.2,4510.0 L-11818.6,4495.4 L-11823.8,4479.3 L-11815.2,4463.2 L-11773.8,4447.8 L-11739.2,4430.9 L-11725.4,4414.8 L-11742.7,4397.0 L-11753.0,4380.9 L-11709.9,4362.3 L-11661.5,4350.2 L-11604.6,4334.9 L-11544.1,4322.0 L-11473.4,4309.9 L-11438.8,4292.1 L-11390.5,4280.8 L-11335.2,4270.3 L-11250.6,4267.9 L-11195.4,4255.0 L-11133.2,4246.9 L-11060.7,4242.1 L-10996.9,4231.6 L-10946.8,4218.7 L-10877.7,4213.9 L-10825.9,4224.3 L-10858.7,4238.1 L-10948.5,4250.2 Z" fill="#efe6d2" stroke="#b7ad98" stroke-width="1"/><path d="M-11753.8,3825.9 L-11639.2,3850.6 L-11515.8,3860.9 L-11555.5,3881.5 L-11639.2,3883.6 L-11684.2,3869.0 L-11713.4,3885.7 L-11789.0,3898.5 L-11884.5,3893.8 L-11948.5,3881.5 L-12040.8,3875.5 L-12151.7,3852.5 L-12241.7,3830.4 L-12363.1,3784.2 L-12290.5,3792.9 L-12166.7,3820.4 L-12049.8,3835.2 L-12004.3,3816.3 L-11975.7,3788.1 L-11894.5,3771.1 L-11831.7,3776.0 L-11831.7,3776.0 L-11797.9,3795.1 L-11753.8,3825.9 Z" fill="#efe6d2" stroke="#b7ad98" stroke-width="1"/><path d="M-10942.9,3712.7 L-10872.3,3731.2 L-10898.8,3745.6 L-11017.8,3758.0 L-11057.4,3743.6 L-11132.4,3762.1 L-11176.4,3743.6 L-11070.7,3718.9 L-10995.7,3729.2 L-10942.9,3712.7 Z" fill="#efe6d2" stroke="#b7ad98" stroke-width="1"/><path d="M413.3,3655.5 L278.0,3658.1 L275.8,3636.2 L288.8,3619.2 L294.7,3610.8 L351.6,3623.8 L434.9,3628.9 L438.0,3636.7 L413.3,3655.5 Z" fill="#efe6d2" stroke="#b7ad98" stroke-width="1"/><path d="M7034.8,3288.3 L7119.9,3302.5 L7167.9,3296.8 L7236.8,3288.9 L7289.6,3291.7 L7295.9,3340.6 L7265.7,3354.8 L7256.6,3387.9 L7225.8,3376.6 L7164.6,3405.3 L7146.3,3403.1 L7092.1,3401.8 L7037.8,3366.6 L7025.7,3339.4 L6974.9,3303.5 L6977.1,3284.6 L7034.8,3288.3 Z" fill="#efe6d2" stroke="#b7ad98" stroke-width="1"/><path d="M9469.6,3293.5 L9489.6,3310.5 L9552.3,3293.8 L9577.8,3311.2 L9577.9,3328.5 L9545.1,3347.6 L9487.5,3377.9 L9442.4,3394.5 L9474.9,3414.3 L9406.9,3414.8 L9331.5,3430.3 L9307.9,3457.3 L9257.8,3499.0 L9188.5,3517.4 L9144.6,3529.1 L9063.4,3528.2 L9006.3,3514.7 L8910.5,3511.8 L8895.7,3496.6 L8943.1,3466.1 L9053.9,3425.5 L9110.8,3417.7 L9174.1,3402.0 L9249.7,3380.5 L9302.6,3359.1 L9341.8,3328.4 L9375.2,3318.0 L9388.3,3295.0 L9450.1,3276.0 L9469.6,3293.5 Z" fill="#efe6d2" stroke="#b7ad98" stroke-width="1"/><path d="M9609.9,3097.4 L9673.8,3140.7 L9675.7,3112.6 L9715.5,3123.8 L9728.6,3155.0 L9799.6,3168.4 L9859.1,3171.7 L9909.5,3156.0 L9954.2,3160.8 L9932.8,3197.3 L9906.0,3221.3 L9838.7,3220.5 L9815.2,3233.0 L9823.3,3250.7 L9810.4,3258.4 L9777.1,3280.6 L9733.4,3308.7 L9665.3,3325.2 L9650.1,3314.4 L9613.4,3308.4 L9664.2,3274.6 L9635.3,3251.9 L9540.5,3235.4 L9543.0,3220.5 L9606.7,3206.1 L9621.5,3174.4 L9617.4,3147.8 L9581.7,3120.2 L9584.1,3113.0 L9542.0,3096.0 L9472.6,3059.5 L9435.8,3030.4 L9468.5,3027.1 L9516.4,3050.0 L9585.0,3060.7 L9609.9,3097.4 Z" fill="#efe6d2" stroke="#b7ad98" stroke-width="1"/><path d="M8949.5,2521.1 L8916.0,2530.9 L8867.5,2519.8 L8804.5,2501.3 L8747.7,2479.5 L8689.3,2450.4 L8677.1,2436.5 L8715.1,2437.1 L8764.4,2451.1 L8803.2,2465.1 L8831.4,2476.6 L8903.7,2502.1 L8949.5,2521.1 Z" fill="#efe6d2" stroke="#b7ad98" stroke-width="1"/><path d="M9941.5,2322.6 L9971.9,2334.5 L9957.3,2356.0 L9902.7,2361.6 L9854.1,2356.5 L9845.6,2338.4 L9879.6,2324.3 L9919.7,2329.4 L9941.5,2322.6 Z" fill="#efe6d2" stroke="#b7ad98" stroke-width="1"/><path d="M10028.8,2300.4 L9972.5,2309.1 L9961.2,2293.7 L10005.3,2285.3 L10033.2,2283.0 L10084.9,2270.2 L10084.9,2290.3 L10028.8,2300.4 Z" fill="#efe6d2" stroke="#b7ad98" stroke-width="1"/><path d="M-21641.2,2288.1 L-21648.4,2290.3 L-21648.4,2270.2 L-21630.2,2268.3 L-21641.2,2288.1 Z" fill="#efe6d2" stroke="#b7ad98" stroke-width="1"/><path d="M9013.4,2286.6 L8984.4,2292.0 L8954.8,2274.0 L8958.1,2263.0 L9013.4,2286.6 Z" fill="#efe6d2" stroke="#b7ad98" stroke-width="1"/><path d="M8948.5,2223.5 L8962.8,2256.7 L8939.1,2251.5 L8920.7,2253.8 L8908.1,2242.4 L8906.3,2210.9 L8948.5,2223.5 Z" fill="#efe6d2" stroke="#b7ad98" stroke-width="1"/><path d="M-1369.4,2166.8 L-1355.2,2216.3 L-1332.4,2235.6 L-1341.1,2255.3 L-1356.7,2267.4 L-1386.7,2243.3 L-1403.2,2255.5 L-1386.4,2286.0 L-1394.2,2303.4 L-1418.6,2313.0 L-1424.1,2347.8 L-1458.8,2395.8 L-1502.3,2452.6 L-1556.8,2530.6 L-1590.5,2587.8 L-1630.4,2635.6 L-1702.1,2645.3 L-1779.0,2662.8 L-1829.8,2652.3 L-1899.8,2637.5 L-1924.1,2615.8 L-1929.9,2579.3 L-1960.9,2546.5 L-1969.0,2516.8 L-1953.2,2487.1 L-1912.6,2480.0 L-1912.4,2466.3 L-1870.3,2435.1 L-1862.3,2408.9 L-1882.8,2389.4 L-1899.5,2363.4 L-1906.5,2325.5 L-1875.7,2302.4 L-1863.9,2276.3 L-1820.0,2274.8 L-1770.8,2266.4 L-1738.2,2258.9 L-1699.4,2258.4 L-1649.2,2234.9 L-1576.7,2209.5 L-1550.2,2188.8 L-1562.2,2171.2 L-1524.8,2176.2 L-1476.2,2147.6 L-1474.5,2122.8 L-1445.4,2104.4 L-1414.6,2122.1 L-1391.2,2139.6 L-1369.4,2166.8 Z" fill="#efe6d2" stroke="#b7ad98" stroke-width="1"/><path d="M6872.9,2175.3 L6904.7,2207.6 L6961.2,2192.1 L6990.4,2209.5 L7032.7,2225.6 L7023.7,2243.9 L7042.5,2279.2 L7055.9,2299.7 L7078.1,2304.8 L7102.0,2340.0 L7093.5,2361.3 L7122.0,2389.2 L7217.5,2410.7 L7279.8,2430.3 L7338.9,2448.2 L7327.4,2458.2 L7377.8,2484.0 L7412.1,2528.6 L7447.3,2519.5 L7483.0,2537.4 L7504.6,2531.0 L7519.7,2574.7 L7582.3,2600.0 L7623.2,2615.7 L7692.1,2649.0 L7716.9,2682.1 L7719.2,2705.6 L7713.1,2731.1 L7755.1,2766.1 L7750.0,2802.5 L7734.8,2821.6 L7711.0,2858.3 L7712.8,2881.9 L7695.3,2911.4 L7656.4,2948.9 L7591.1,2969.1 L7558.9,3001.0 L7529.5,3021.4 L7503.4,3056.9 L7469.4,3077.4 L7447.1,3108.2 L7435.7,3136.6 L7440.2,3149.6 L7389.7,3163.9 L7291.0,3165.4 L7209.6,3182.3 L7169.1,3198.3 L7115.9,3215.9 L7042.9,3197.7 L6988.9,3190.5 L7002.5,3169.0 L6954.4,3176.8 L6877.2,3206.6 L6801.0,3195.5 L6751.0,3188.9 L6700.6,3186.0 L6615.3,3174.1 L6558.3,3148.7 L6541.9,3117.4 L6521.4,3096.6 L6478.1,3079.9 L6393.3,3075.0 L6422.3,3055.0 L6401.0,3024.4 L6357.9,3052.9 L6279.5,3060.5 L6325.6,3037.7 L6338.9,3014.0 L6373.0,2993.8 L6365.9,2963.3 L6294.2,2998.4 L6239.2,3012.5 L6205.4,3045.2 L6136.6,3028.3 L6139.3,3006.4 L6084.1,2976.6 L6037.6,2961.2 L6054.2,2951.7 L5941.1,2926.7 L5879.2,2925.5 L5794.4,2905.5 L5636.6,2909.4 L5522.4,2924.1 L5422.1,2937.9 L5338.0,2935.1 L5244.6,2956.2 L5168.1,2965.7 L5151.1,2987.3 L5118.6,3004.1 L5043.8,3005.1 L4988.4,3008.7 L4910.5,3001.2 L4847.1,3005.7 L4786.6,3007.6 L4734.2,3029.6 L4708.5,3027.7 L4664.3,3039.3 L4621.9,3052.4 L4557.6,3050.8 L4498.5,3050.8 L4405.0,3024.5 L4357.6,3016.7 L4359.5,2993.1 L4403.3,2987.5 L4418.3,2978.1 L4415.1,2963.3 L4425.9,2934.7 L4416.0,2910.3 L4369.4,2868.7 L4355.0,2845.1 L4358.8,2821.7 L4323.7,2794.9 L4321.5,2782.8 L4282.4,2766.4 L4271.4,2734.1 L4221.1,2701.5 L4208.8,2684.0 L4247.6,2701.8 L4217.8,2663.6 L4261.5,2675.5 L4287.6,2691.5 L4286.2,2670.4 L4242.5,2638.0 L4234.1,2625.0 L4213.7,2612.7 L4223.2,2588.8 L4241.3,2578.7 L4253.3,2558.1 L4243.9,2534.0 L4280.3,2504.4 L4287.0,2535.8 L4324.2,2507.5 L4395.8,2493.7 L4438.8,2476.1 L4506.1,2461.0 L4546.2,2457.8 L4570.5,2462.9 L4639.9,2447.5 L4693.4,2443.0 L4706.8,2433.9 L4730.1,2430.2 L4778.8,2431.2 L4871.5,2419.1 L4919.4,2400.8 L4941.9,2378.8 L4993.6,2357.9 L4997.6,2341.5 L4999.9,2319.1 L5061.6,2284.1 L5098.7,2319.6 L5136.2,2311.4 L5104.8,2292.0 L5132.5,2272.0 L5171.4,2280.9 L5182.1,2249.6 L5230.2,2229.3 L5251.5,2213.1 L5295.8,2206.1 L5297.2,2194.6 L5335.9,2199.4 L5337.5,2189.0 L5376.2,2183.1 L5418.8,2177.6 L5484.0,2196.5 L5532.9,2220.8 L5588.1,2221.1 L5644.1,2225.0 L5625.4,2202.4 L5667.7,2169.4 L5707.4,2158.6 L5693.7,2148.3 L5731.9,2124.8 L5785.3,2110.3 L5830.4,2115.2 L5904.5,2107.4 L5902.9,2086.4 L5838.3,2072.8 L5885.3,2066.8 L5943.7,2077.0 L5990.5,2093.9 L6064.7,2104.5 L6089.9,2100.3 L6144.5,2112.9 L6196.0,2101.2 L6229.1,2104.7 L6249.8,2096.8 L6290.3,2117.2 L6266.8,2139.2 L6233.3,2155.9 L6203.0,2157.2 L6213.2,2173.7 L6187.3,2194.3 L6156.0,2214.5 L6162.3,2226.1 L6232.4,2248.9 L6300.3,2262.1 L6345.7,2276.3 L6409.4,2300.7 L6434.2,2300.6 L6480.4,2311.2 L6493.8,2323.9 L6577.9,2337.9 L6636.1,2323.8 L6653.4,2301.7 L6671.3,2283.4 L6682.2,2260.8 L6709.0,2228.1 L6696.8,2208.2 L6703.1,2196.2 L6692.9,2172.6 L6704.5,2141.6 L6721.4,2133.2 L6707.7,2119.5 L6729.0,2097.7 L6745.7,2075.0 L6747.9,2063.3 L6780.7,2047.9 L6805.5,2068.0 L6811.7,2093.8 L6833.6,2098.8 L6837.4,2116.1 L6869.4,2137.1 L6876.0,2160.4 L6872.9,2175.3 Z" fill="#efe6d2" stroke="#b7ad98" stroke-width="1"/><path d="M8508.7,2040.2 L8533.4,2054.4 L8471.8,2054.1 L8438.3,2028.8 L8490.9,2038.7 L8508.7,2040.2 Z" fill="#efe6d2" stroke="#b7ad98" stroke-width="1"/><path d="M4859.1,2030.2 L4822.0,2031.0 L4705.0,2002.2 L4787.2,1994.1 L4833.5,2006.6 L4864.4,2019.1 L4859.1,2030.2 Z" fill="#efe6d2" stroke="#b7ad98" stroke-width="1"/><path d="M8397.0,2015.1 L8362.7,2016.0 L8308.7,2011.9 L8290.2,2005.5 L8295.7,1989.2 L8353.9,1995.7 L8382.6,2004.3 L8397.0,2015.1 Z" fill="#efe6d2" stroke="#b7ad98" stroke-width="1"/><path d="M8470.0,2003.9 L8456.7,2011.5 L8391.4,1975.8 L8373.1,1951.2 L8403.0,1951.2 L8434.8,1984.1 L8470.0,2003.9 Z" fill="#efe6d2" stroke="#b7ad98" stroke-width="1"/><path d="M5187.0,2026.1 L5111.6,2035.2 L5101.0,2030.2 L5108.9,2016.2 L5146.8,1991.1 L5234.0,1974.8 L5244.3,1965.0 L5320.2,1955.8 L5381.7,1954.4 L5409.3,1949.3 L5442.6,1954.4 L5410.2,1965.5 L5318.4,1983.5 L5244.5,1995.4 L5187.0,2026.1 Z" fill="#efe6d2" stroke="#b7ad98" stroke-width="1"/><path d="M4610.9,1941.9 L4642.7,1952.9 L4697.1,1949.6 L4719.0,1967.1 L4617.1,1975.3 L4556.0,1980.9 L4508.6,1980.5 L4538.9,1956.8 L4587.3,1956.5 L4610.9,1941.9 Z" fill="#efe6d2" stroke="#b7ad98" stroke-width="1"/><path d="M5051.9,1941.9 L5039.0,1964.8 L4906.6,1976.4 L4789.3,1971.4 L4789.0,1956.3 L4859.0,1947.8 L4914.3,1960.1 L4972.9,1957.0 L5051.9,1941.9 Z" fill="#efe6d2" stroke="#b7ad98" stroke-width="1"/><path d="M8310.9,1951.9 L8314.6,1960.2 L8245.6,1942.7 L8197.3,1927.9 L8164.2,1914.2 L8177.4,1910.0 L8217.9,1919.9 L8290.2,1938.8 L8310.9,1951.9 Z" fill="#efe6d2" stroke="#b7ad98" stroke-width="1"/><path d="M8104.9,1911.1 L8087.4,1913.5 L8048.8,1904.1 L8012.6,1887.2 L8017.2,1880.3 L8069.8,1897.7 L8104.9,1911.1 Z" fill="#efe6d2" stroke="#b7ad98" stroke-width="1"/><path d="M3793.2,1887.7 L3962.1,1891.8 L3981.5,1874.8 L4145.0,1894.6 L4177.1,1921.3 L4309.3,1928.8 L4417.5,1953.3 L4316.9,1969.0 L4219.9,1952.4 L4140.1,1953.5 L4048.7,1950.4 L3966.2,1943.0 L3864.1,1927.3 L3799.4,1923.2 L3762.7,1928.4 L3602.0,1911.4 L3586.7,1893.7 L3506.0,1890.7 L3566.5,1851.4 L3673.4,1853.8 L3744.6,1869.9 L3781.1,1873.0 L3793.2,1887.7 Z" fill="#efe6d2" stroke="#b7ad98" stroke-width="1"/><path d="M6093.9,1864.5 L6048.6,1892.5 L6040.0,1861.5 L6055.7,1846.7 L6074.1,1832.8 L6094.2,1844.8 L6093.9,1864.5 Z" fill="#efe6d2" stroke="#b7ad98" stroke-width="1"/><path d="M7958.8,1889.4 L7934.1,1893.5 L7895.9,1877.7 L7857.3,1851.6 L7838.4,1820.2 L7850.6,1816.2 L7860.0,1828.5 L7886.7,1837.8 L7929.5,1863.9 L7971.1,1877.9 L7958.8,1889.4 Z" fill="#efe6d2" stroke="#b7ad98" stroke-width="1"/><path d="M7615.2,1834.2 L7569.1,1837.5 L7555.2,1849.1 L7506.9,1859.1 L7461.7,1868.7 L7414.9,1868.7 L7342.6,1856.7 L7292.3,1845.2 L7299.6,1832.5 L7378.6,1838.5 L7426.8,1835.3 L7440.1,1815.5 L7452.8,1814.5 L7461.3,1836.4 L7511.6,1833.2 L7536.5,1819.2 L7585.7,1804.5 L7576.0,1780.2 L7628.8,1779.4 L7646.6,1786.2 L7644.8,1809.0 L7615.2,1834.2 Z" fill="#efe6d2" stroke="#b7ad98" stroke-width="1"/><path d="M5435.0,1751.0 L5402.0,1764.7 L5341.1,1757.1 L5323.9,1739.4 L5413.1,1737.4 L5435.0,1751.0 Z" fill="#efe6d2" stroke="#b7ad98" stroke-width="1"/><path d="M5719.0,1736.0 L5751.1,1767.5 L5676.6,1750.5 L5603.0,1747.0 L5553.3,1749.8 L5492.3,1748.3 L5513.2,1725.7 L5622.0,1724.0 L5719.0,1736.0 Z" fill="#efe6d2" stroke="#b7ad98" stroke-width="1"/><path d="M7717.2,1793.9 L7689.7,1804.9 L7673.0,1780.5 L7652.5,1764.6 L7612.6,1751.1 L7562.5,1733.6 L7498.8,1721.5 L7523.3,1711.5 L7570.9,1723.1 L7600.9,1732.1 L7637.9,1742.0 L7673.2,1759.3 L7706.7,1772.5 L7717.2,1793.9 Z" fill="#efe6d2" stroke="#b7ad98" stroke-width="1"/><path d="M6042.7,1656.0 L6067.3,1722.6 L6158.6,1747.3 L6232.2,1703.6 L6333.4,1678.7 L6411.7,1678.7 L6487.1,1693.1 L6552.5,1707.8 L6647.1,1715.7 L6800.1,1744.0 L6963.0,1767.6 L7023.8,1788.7 L7072.8,1809.4 L7086.3,1833.6 L7233.1,1859.1 L7254.5,1880.9 L7173.4,1885.4 L7192.9,1912.8 L7271.6,1939.8 L7328.9,1983.5 L7379.3,1982.1 L7375.8,2000.4 L7443.9,2007.4 L7417.4,2015.1 L7511.1,2032.4 L7501.3,2044.3 L7442.9,2047.2 L7421.3,2036.5 L7345.5,2031.9 L7256.5,2025.7 L7187.9,1999.5 L7137.9,1976.8 L7092.1,1940.8 L6977.2,1922.8 L6902.5,1934.5 L6848.7,1948.1 L6859.9,1978.5 L6790.7,1992.6 L6741.3,1985.7 L6650.1,1984.0 L6571.6,1950.2 L6482.1,1942.0 L6460.4,1953.7 L6348.7,1955.0 L6386.1,1921.4 L6441.6,1910.0 L6418.6,1865.2 L6376.3,1830.7 L6205.4,1795.8 L6132.7,1792.4 L6000.4,1754.3 L5974.3,1774.3 L5940.5,1777.9 L5920.5,1762.8 L5920.2,1745.0 L5852.9,1724.7 L5947.8,1709.9 L6010.7,1710.7 L6003.3,1699.8 L5874.3,1699.7 L5839.3,1675.2 L5760.6,1667.6 L5723.3,1647.2 L5842.1,1637.2 L5887.3,1623.8 L6028.8,1640.7 L6042.7,1656.0 Z" fill="#efe6d2" stroke="#b7ad98" stroke-width="1"/><path d="M5257.9,1550.1 L5187.1,1591.0 L5120.9,1598.9 L5036.0,1590.8 L4889.1,1592.9 L4812.1,1598.8 L4799.6,1630.0 L4878.5,1666.6 L4926.1,1648.0 L5090.5,1633.9 L5083.2,1652.9 L5044.8,1646.9 L5006.5,1671.0 L4929.0,1687.0 L5012.4,1739.8 L4996.3,1753.9 L5075.5,1801.4 L5074.8,1828.5 L5027.7,1840.6 L4993.1,1826.1 L5035.7,1792.4 L4949.2,1808.3 L4927.3,1797.0 L4938.7,1781.1 L4875.2,1756.9 L4881.7,1716.8 L4822.9,1729.3 L4830.4,1777.3 L4834.0,1836.2 L4778.1,1842.2 L4740.2,1830.1 L4765.5,1792.2 L4751.8,1752.5 L4714.8,1752.2 L4687.4,1724.0 L4723.8,1697.0 L4736.4,1664.3 L4780.7,1602.2 L4799.1,1585.3 L4874.1,1554.7 L4942.9,1566.8 L5054.1,1572.6 L5155.4,1570.8 L5242.6,1540.9 L5257.9,1550.1 Z" fill="#efe6d2" stroke="#b7ad98" stroke-width="1"/><path d="M5561.9,1562.0 L5557.2,1597.9 L5511.8,1593.9 L5498.4,1619.0 L5534.7,1640.7 L5510.0,1645.6 L5474.4,1619.6 L5448.3,1566.9 L5466.0,1534.0 L5495.2,1519.0 L5501.6,1541.5 L5553.6,1545.1 L5561.9,1562.0 Z" fill="#efe6d2" stroke="#b7ad98" stroke-width="1"/><path d="M3545.9,1849.6 L3448.2,1850.4 L3374.0,1816.0 L3260.8,1782.4 L3223.1,1757.4 L3156.4,1723.9 L3112.6,1693.0 L3045.6,1635.4 L2968.1,1601.0 L2942.2,1565.6 L2909.7,1533.5 L2830.3,1507.6 L2784.2,1472.3 L2717.8,1449.3 L2625.9,1403.9 L2618.1,1382.9 L2674.9,1384.6 L2811.3,1392.6 L2889.3,1432.8 L2957.5,1460.8 L3006.1,1477.9 L3089.6,1522.1 L3179.2,1522.8 L3253.3,1551.0 L3304.3,1585.5 L3371.4,1604.3 L3336.1,1637.9 L3386.6,1652.2 L3418.2,1653.3 L3433.2,1682.0 L3463.9,1705.0 L3528.6,1708.6 L3571.5,1734.7 L3549.4,1785.9 L3545.9,1849.6 Z" fill="#efe6d2" stroke="#b7ad98" stroke-width="1"/><path d="M4608.7,1533.3 L4707.6,1571.4 L4603.1,1576.3 L4573.7,1604.4 L4577.5,1641.7 L4492.8,1669.8 L4490.5,1710.9 L4456.5,1773.8 L4443.5,1759.2 L4343.3,1777.7 L4308.4,1752.5 L4245.6,1750.2 L4201.6,1737.0 L4096.8,1751.8 L4064.7,1731.9 L4006.9,1734.2 L3934.3,1729.4 L3920.8,1674.2 L3876.8,1662.7 L3834.5,1627.5 L3822.2,1591.5 L3832.5,1553.3 L3884.8,1526.0 L3949.4,1540.1 L4017.6,1532.4 L4035.3,1497.5 L4072.9,1489.8 L4178.6,1480.8 L4241.8,1448.3 L4285.1,1422.2 L4320.0,1406.8 L4395.0,1384.3 L4462.9,1355.6 L4507.3,1323.5 L4543.0,1323.3 L4588.3,1344.1 L4592.3,1362.0 L4650.4,1373.5 L4723.9,1385.9 L4717.6,1402.0 L4658.5,1404.1 L4674.2,1424.2 L4609.3,1438.2 L4559.2,1475.4 L4624.0,1514.4 L4608.7,1533.3 Z" fill="#efe6d2" stroke="#b7ad98" stroke-width="1"/><path d="M5358.1,1262.1 L5367.1,1289.5 L5372.3,1312.6 L5342.2,1350.2 L5310.0,1308.3 L5268.8,1329.1 L5297.0,1359.5 L5271.7,1378.8 L5168.0,1354.9 L5143.2,1325.1 L5170.1,1305.5 L5114.2,1286.0 L5086.5,1303.1 L5045.1,1301.5 L4979.8,1324.5 L4965.2,1312.4 L4999.8,1277.7 L5055.4,1266.2 L5103.4,1250.6 L5134.6,1269.3 L5201.6,1258.0 L5216.0,1239.6 L5278.3,1238.5 L5273.1,1206.7 L5344.5,1226.2 L5351.9,1247.0 L5358.1,1262.1 Z" fill="#efe6d2" stroke="#b7ad98" stroke-width="1"/><path d="M1377.4,1353.4 L1300.8,1362.8 L1258.8,1330.1 L1243.2,1270.9 L1283.1,1204.1 L1344.0,1226.9 L1385.0,1255.9 L1427.7,1298.8 L1414.4,1341.7 L1377.4,1353.4 Z" fill="#efe6d2" stroke="#b7ad98" stroke-width="1"/><path d="M-11153.1,1192.3 L-11226.7,1196.8 L-11242.6,1193.1 L-11217.0,1181.8 L-11218.8,1165.5 L-11168.1,1160.2 L-11149.6,1161.6 L-11153.1,1192.3 Z" fill="#efe6d2" stroke="#b7ad98" stroke-width="1"/><path d="M5147.0,1185.3 L5115.4,1198.9 L5087.8,1224.9 L5060.1,1237.1 L5005.8,1208.6 L5024.0,1197.6 L5046.1,1186.1 L5055.8,1160.5 L5104.4,1158.1 L5090.2,1185.8 L5155.5,1146.1 L5147.0,1185.3 Z" fill="#efe6d2" stroke="#b7ad98" stroke-width="1"/><path d="M4664.2,1225.0 L4546.9,1264.0 L4590.1,1235.2 L4653.8,1209.8 L4706.7,1181.3 L4752.9,1140.4 L4768.6,1174.0 L4710.4,1196.7 L4664.2,1225.0 Z" fill="#efe6d2" stroke="#b7ad98" stroke-width="1"/><path d="M4962.0,1118.9 L5014.9,1131.7 L5071.0,1131.6 L5069.3,1148.8 L5028.5,1166.3 L4972.5,1178.7 L4969.4,1159.5 L4975.7,1138.5 L4962.0,1118.9 Z" fill="#efe6d2" stroke="#b7ad98" stroke-width="1"/><path d="M5281.0,1107.8 L5305.8,1153.7 L5237.8,1142.8 L5239.6,1156.6 L5261.2,1182.1 L5219.3,1191.3 L5215.6,1162.3 L5189.1,1160.2 L5175.3,1135.2 L5227.1,1138.5 L5226.0,1122.9 L5172.1,1091.5 L5256.8,1092.4 L5281.0,1107.8 Z" fill="#efe6d2" stroke="#b7ad98" stroke-width="1"/><path d="M4930.6,1070.4 L4907.3,1106.0 L4869.5,1085.5 L4824.5,1054.1 L4900.0,1055.6 L4930.6,1070.4 Z" fill="#efe6d2" stroke="#b7ad98" stroke-width="1"/><path d="M4912.5,846.7 L4966.8,858.4 L4994.0,847.7 L5002.0,858.2 L4987.7,875.2 L5017.8,904.7 L4994.5,939.0 L4942.6,952.6 L4928.7,985.8 L4948.4,1018.6 L4995.1,1023.1 L5034.1,1018.3 L5144.2,1041.1 L5135.8,1063.5 L5164.6,1073.4 L5155.4,1092.4 L5086.7,1072.2 L5054.2,1050.5 L5031.5,1065.6 L4975.4,1041.0 L4895.3,1047.1 L4851.4,1038.0 L4855.9,1021.0 L4883.4,1010.5 L4857.1,1001.0 L4845.7,1015.8 L4802.2,992.1 L4789.0,974.2 L4785.8,934.8 L4821.3,948.3 L4830.4,883.9 L4859.1,846.6 L4912.5,846.7 Z" fill="#efe6d2" stroke="#b7ad98" stroke-width="1"/><path d="M-11563.5,858.0 L-11586.1,868.4 L-11652.4,868.2 L-11703.9,869.6 L-11709.1,852.0 L-11696.6,846.0 L-11624.5,846.2 L-11579.4,849.8 L-11563.5,858.0 Z" fill="#efe6d2" stroke="#b7ad98" stroke-width="1"/><path d="M-12560.6,872.8 L-12587.4,879.7 L-12636.7,873.1 L-12687.1,858.1 L-12676.5,848.7 L-12639.5,845.8 L-12619.4,847.2 L-12560.1,850.9 L-12513.2,860.8 L-12498.6,872.1 L-12560.6,872.8 Z" fill="#efe6d2" stroke="#b7ad98" stroke-width="1"/><path d="M-12179.5,790.3 L-12103.1,796.8 L-12092.1,789.8 L-12023.3,790.0 L-11971.0,800.6 L-11947.8,799.6 L-11931.8,814.2 L-11883.6,813.3 L-11886.4,825.6 L-11847.2,827.1 L-11803.9,842.2 L-11836.6,859.0 L-11878.5,850.0 L-11919.0,851.7 L-11948.0,849.8 L-11963.9,857.3 L-11997.7,859.8 L-12011.1,849.8 L-12040.3,855.7 L-12075.6,883.9 L-12098.3,877.4 L-12102.7,865.6 L-12161.3,858.6 L-12202.9,861.4 L-12256.7,858.4 L-12297.9,866.1 L-12345.1,853.3 L-12337.3,840.0 L-12256.2,845.8 L-12189.7,849.1 L-12158.0,839.9 L-12198.2,822.1 L-12197.6,806.3 L-12253.2,799.9 L-12233.3,788.5 L-12179.5,790.3 Z" fill="#efe6d2" stroke="#b7ad98" stroke-width="1"/><path d="M3944.4,839.5 L3868.3,859.3 L3796.0,846.5 L3793.4,811.1 L3836.9,792.4 L3933.2,780.9 L3983.9,781.9 L4003.6,797.6 L3964.8,815.7 L3944.4,839.5 Z" fill="#efe6d2" stroke="#b7ad98" stroke-width="1"/><path d="M-19492.5,822.8 L-19505.4,829.7 L-19527.3,823.8 L-19524.8,812.3 L-19539.4,797.3 L-19535.0,792.7 L-19519.7,786.0 L-19525.8,777.9 L-19520.6,774.1 L-19513.9,774.8 L-19480.2,781.8 L-19464.5,785.3 L-19450.2,790.9 L-19427.8,805.3 L-19429.9,807.6 L-19464.3,816.4 L-19492.5,822.8 Z" fill="#efe6d2" stroke="#b7ad98" stroke-width="1"/><path d="M-19539.9,758.5 L-19569.4,761.5 L-19584.6,752.8 L-19594.7,749.5 L-19595.5,746.9 L-19586.9,743.4 L-19555.6,747.3 L-19532.5,753.6 L-19539.9,758.5 Z" fill="#efe6d2" stroke="#b7ad98" stroke-width="1"/><path d="M-19599.7,736.6 L-19602.5,741.1 L-19649.7,739.9 L-19643.1,734.8 L-19599.7,736.6 Z" fill="#efe6d2" stroke="#b7ad98" stroke-width="1"/><path d="M-19678.6,730.6 L-19683.4,733.0 L-19689.7,732.5 L-19720.4,731.0 L-19731.6,721.7 L-19735.0,720.0 L-19711.4,714.4 L-19704.0,717.0 L-19678.6,730.6 Z" fill="#efe6d2" stroke="#b7ad98" stroke-width="1"/><path d="M-19827.8,703.4 L-19838.2,707.5 L-19867.9,700.0 L-19863.3,697.0 L-19849.9,693.0 L-19829.6,693.9 L-19827.8,703.4 Z" fill="#efe6d2" stroke="#b7ad98" stroke-width="1"/><path d="M-12805.4,671.2 L-12770.3,686.3 L-12688.0,681.6 L-12656.7,691.3 L-12582.1,716.8 L-12527.2,735.4 L-12498.2,734.8 L-12445.6,743.2 L-12452.0,754.8 L-12387.1,756.5 L-12320.4,773.3 L-12330.9,783.0 L-12389.5,788.2 L-12448.8,790.3 L-12509.6,787.0 L-12635.8,791.0 L-12576.7,768.0 L-12612.6,757.3 L-12669.4,754.6 L-12699.9,742.7 L-12720.8,719.3 L-12770.6,720.9 L-12852.8,709.8 L-12879.2,701.2 L-12994.1,694.8 L-13024.9,686.8 L-12991.9,676.5 L-13078.3,674.4 L-13141.7,695.8 L-13178.2,696.3 L-13190.8,706.4 L-13234.4,710.9 L-13272.2,707.0 L-13225.6,694.3 L-13206.5,679.4 L-13166.7,670.3 L-13121.7,662.2 L-13054.9,658.3 L-13033.6,653.8 L-12957.4,656.7 L-12888.2,657.2 L-12805.4,671.2 Z" fill="#efe6d2" stroke="#b7ad98" stroke-width="1"/><path d="M-12616.3,630.2 L-12637.9,632.3 L-12660.3,608.6 L-12693.3,596.7 L-12674.2,570.5 L-12647.6,572.2 L-12616.8,606.4 L-12616.3,630.2 Z" fill="#efe6d2" stroke="#b7ad98" stroke-width="1"/><path d="M4899.6,670.1 L4861.9,703.9 L4815.4,669.2 L4805.4,638.6 L4857.2,598.2 L4927.8,567.0 L4968.0,579.3 L4952.7,604.1 L4899.6,670.1 Z" fill="#efe6d2" stroke="#b7ad98" stroke-width="1"/><path d="M-12641.5,514.1 L-12737.5,520.7 L-12743.7,505.5 L-12702.3,502.2 L-12644.1,503.4 L-12641.5,514.1 Z" fill="#efe6d2" stroke="#b7ad98" stroke-width="1"/><path d="M-12569.2,513.7 L-12584.4,543.0 L-12600.6,537.7 L-12599.2,516.2 L-12638.6,499.9 L-12638.8,495.2 L-12569.2,513.7 Z" fill="#efe6d2" stroke="#b7ad98" stroke-width="1"/><path d="M6086.4,202.4 L6097.6,216.6 L6048.0,241.5 L6011.8,228.3 L5966.6,237.8 L5943.2,261.9 L5885.8,250.2 L5886.5,230.7 L5935.3,206.1 L5985.4,210.9 L6021.6,193.6 L6086.4,202.4 Z" fill="#efe6d2" stroke="#b7ad98" stroke-width="1"/><path d="M-2733.9,139.8 L-2793.5,157.3 L-2787.1,165.0 L-2784.3,168.3 L-2874.7,185.0 L-2917.8,179.7 L-2938.4,163.2 L-2896.5,161.6 L-2890.3,161.4 L-2877.6,151.5 L-2814.1,152.0 L-2733.9,139.8 Z" fill="#efe6d2" stroke="#b7ad98" stroke-width="1"/><path d="M-3692.7,138.4 L-3644.5,152.3 L-3575.9,149.9 L-3510.3,152.8 L-3512.4,160.0 L-3464.4,155.1 L-3475.4,167.2 L-3602.3,170.7 L-3601.4,163.9 L-3709.0,155.9 L-3692.7,138.4 Z" fill="#efe6d2" stroke="#b7ad98" stroke-width="1"/><path d="M-4413.7,34.4 L-4445.4,66.8 L-4432.2,79.5 L-4450.7,100.7 L-4518.2,85.2 L-4563.0,80.8 L-4686.0,59.8 L-4673.7,38.7 L-4570.5,42.4 L-4480.6,38.0 L-4413.7,34.4 Z" fill="#efe6d2" stroke="#b7ad98" stroke-width="1"/><path d="M-4969.9,-88.3 L-4917.0,-59.1 L-4929.4,-4.6 L-4969.5,-7.2 L-5005.5,6.6 L-5038.8,-4.4 L-5042.4,-54.0 L-5062.5,-77.6 L-5014.0,-75.5 L-4969.9,-88.3 Z" fill="#efe6d2" stroke="#b7ad98" stroke-width="1"/><path d="M6645.0,79.2 L6611.8,112.1 L6627.2,132.7 L6581.3,161.7 L6468.7,181.1 L6313.7,183.6 L6188.1,230.6 L6128.9,214.8 L6125.2,184.0 L5971.9,193.1 L5867.6,212.5 L5764.4,213.3 L5853.8,243.6 L5795.0,313.6 L5738.0,330.9 L5695.3,314.9 L5716.9,277.8 L5661.1,265.8 L5625.3,237.6 L5708.7,224.9 L5754.9,199.0 L5843.6,177.7 L5908.2,149.6 L6083.7,137.3 L6177.9,145.7 L6270.2,72.5 L6329.0,92.2 L6458.3,51.0 L6508.4,35.0 L6563.8,-15.4 L6548.7,-61.7 L6585.9,-87.7 L6679.6,-95.2 L6727.7,-38.1 L6725.1,-4.7 L6643.5,36.7 L6645.0,79.2 Z" fill="#efe6d2" stroke="#b7ad98" stroke-width="1"/><path d="M-4939.1,-127.1 L-4968.2,-95.3 L-5008.2,-103.7 L-5028.6,-131.4 L-5010.8,-146.7 L-4954.1,-162.4 L-4939.1,-127.1 Z" fill="#efe6d2" stroke="#b7ad98" stroke-width="1"/><path d="M6903.6,-210.3 L6965.6,-201.6 L7028.0,-219.0 L7047.6,-172.8 L6916.8,-161.5 L6839.6,-120.6 L6701.0,-148.8 L6653.0,-103.7 L6555.0,-103.1 L6542.9,-144.0 L6586.5,-175.7 L6680.7,-178.0 L6706.3,-235.0 L6732.4,-267.1 L6836.0,-224.2 L6903.6,-210.3 Z" fill="#efe6d2" stroke="#b7ad98" stroke-width="1"/><path d="M-11393.7,-308.2 L-11329.8,-302.7 L-11248.0,-303.8 L-11291.4,-286.9 L-11324.0,-284.2 L-11435.8,-301.7 L-11457.9,-315.5 L-11424.6,-328.2 L-11393.7,-308.2 Z" fill="#efe6d2" stroke="#b7ad98" stroke-width="1"/><path d="M-11229.9,-413.4 L-11272.8,-412.6 L-11387.1,-425.6 L-11469.0,-445.0 L-11438.5,-448.5 L-11322.6,-438.1 L-11232.5,-420.9 L-11229.9,-413.4 Z" fill="#efe6d2" stroke="#b7ad98" stroke-width="1"/><path d="M-16669.0,-388.9 L-16713.3,-383.2 L-16858.0,-401.9 L-16884.5,-416.5 L-16963.4,-430.9 L-16979.2,-442.6 L-17070.0,-450.0 L-17103.9,-472.4 L-17096.3,-482.0 L-17003.8,-473.0 L-16949.7,-466.7 L-16866.8,-462.4 L-16836.9,-448.2 L-16793.3,-428.6 L-16705.3,-411.6 L-16669.0,-388.9 Z" fill="#efe6d2" stroke="#b7ad98" stroke-width="1"/><path d="M-10729.9,-478.5 L-10788.2,-442.5 L-10730.7,-456.4 L-10671.5,-447.6 L-10702.4,-433.2 L-10624.2,-421.9 L-10583.5,-432.0 L-10495.6,-419.3 L-10522.9,-389.2 L-10461.2,-396.2 L-10450.0,-374.4 L-10422.6,-348.8 L-10459.7,-312.5 L-10499.6,-311.0 L-10557.6,-318.8 L-10538.4,-352.4 L-10563.0,-357.7 L-10665.3,-322.0 L-10717.9,-323.4 L-10655.6,-342.7 L-10740.2,-352.8 L-10834.9,-350.3 L-11006.0,-351.5 L-11019.5,-363.7 L-10964.6,-378.2 L-11002.9,-389.4 L-10928.9,-414.2 L-10837.8,-479.8 L-10783.2,-503.2 L-10706.7,-517.4 L-10665.8,-515.6 L-10682.8,-504.5 L-10729.9,-478.5 Z" fill="#efe6d2" stroke="#b7ad98" stroke-width="1"/><path d="M-17479.9,-616.6 L-17479.9,-616.6 L-17479.9,-616.6 L-17479.9,-616.6 L-17395.3,-619.9 L-17421.7,-573.1 L-17345.0,-540.0 L-17380.1,-540.1 L-17433.2,-558.9 L-17465.8,-577.9 L-17510.3,-590.7 L-17526.6,-608.8 L-17521.3,-621.9 L-17479.9,-616.6 Z" fill="#efe6d2" stroke="#b7ad98" stroke-width="1"/><path d="M6880.5,-481.0 L6969.2,-408.1 L6838.7,-421.7 L6784.5,-362.2 L6870.4,-320.0 L6867.9,-291.2 L6801.2,-316.0 L6743.4,-284.2 L6727.1,-318.7 L6736.9,-358.8 L6726.8,-403.3 L6747.2,-434.4 L6751.1,-489.4 L6699.5,-529.9 L6707.3,-586.2 L6788.8,-605.1 L6753.7,-624.2 L6793.0,-630.0 L6815.9,-602.8 L6846.4,-563.1 L6844.1,-522.6 L6880.5,-481.0 Z" fill="#efe6d2" stroke="#b7ad98" stroke-width="1"/><path d="M-6380.2,-543.3 L-6536.5,-519.0 L-6661.2,-525.2 L-6589.8,-568.2 L-6635.8,-610.1 L-6515.9,-642.3 L-6449.3,-661.5 L-6375.4,-663.2 L-6280.9,-637.8 L-6328.1,-609.5 L-6313.6,-580.1 L-6380.2,-543.3 Z" fill="#efe6d2" stroke="#b7ad98" stroke-width="1"/><path d="M-4663.2,-681.2 L-4716.1,-647.9 L-4808.3,-671.1 L-4820.6,-688.2 L-4691.3,-701.9 L-4663.2,-681.2 Z" fill="#efe6d2" stroke="#b7ad98" stroke-width="1"/><path d="M-19269.0,-743.2 L-19357.0,-727.5 L-19402.1,-738.2 L-19415.7,-757.5 L-19335.7,-772.1 L-19288.6,-778.4 L-19230.1,-775.6 L-19192.7,-762.8 L-19269.0,-743.2 Z" fill="#efe6d2" stroke="#b7ad98" stroke-width="1"/><path d="M-6046.7,-805.8 L-6140.9,-761.2 L-6051.1,-766.9 L-5954.5,-766.7 L-5977.5,-733.1 L-6056.7,-696.2 L-5965.6,-693.6 L-5880.1,-640.7 L-5819.7,-634.1 L-5765.5,-587.1 L-5740.4,-570.9 L-5633.6,-563.0 L-5644.3,-536.7 L-5689.2,-524.6 L-5654.0,-503.3 L-5733.3,-481.8 L-5851.2,-482.1 L-6001.3,-470.8 L-6042.4,-478.9 L-6100.6,-459.6 L-6182.2,-464.3 L-6244.1,-448.6 L-6291.0,-456.8 L-6161.7,-500.1 L-6082.8,-509.0 L-6221.1,-515.8 L-6246.1,-532.2 L-6154.0,-545.0 L-6202.2,-567.2 L-6185.5,-594.1 L-6054.3,-590.4 L-6041.4,-614.3 L-6101.8,-640.3 L-6208.8,-647.5 L-6229.8,-658.7 L-6197.8,-677.1 L-6226.7,-688.4 L-6274.2,-668.9 L-6279.4,-708.6 L-6323.9,-729.6 L-6291.9,-772.2 L-6223.4,-805.6 L-6153.0,-802.3 L-6046.7,-805.8 Z" fill="#efe6d2" stroke="#b7ad98" stroke-width="1"/><path d="M-20377.3,-858.3 L-20431.4,-851.9 L-20489.1,-859.6 L-20542.7,-870.8 L-20455.6,-877.8 L-20385.7,-874.1 L-20377.3,-858.3 Z" fill="#efe6d2" stroke="#b7ad98" stroke-width="1"/><path d="M-12768.9,-950.9 L-12803.4,-929.2 L-12842.4,-932.7 L-12865.6,-945.0 L-12861.4,-947.9 L-12827.4,-960.2 L-12791.3,-959.3 L-12768.9,-950.9 Z" fill="#efe6d2" stroke="#b7ad98" stroke-width="1"/><path d="M-13001.0,-973.6 L-13104.1,-950.9 L-13166.4,-951.9 L-13185.7,-963.0 L-13120.2,-982.0 L-12999.1,-981.6 L-13001.0,-973.6 Z" fill="#efe6d2" stroke="#b7ad98" stroke-width="1"/><path d="M-20919.6,-1017.8 L-20865.2,-1009.9 L-20810.3,-1014.1 L-20739.0,-1003.3 L-20651.4,-997.8 L-20658.7,-993.3 L-20725.5,-984.6 L-20792.6,-993.5 L-20826.1,-1001.0 L-20903.9,-998.6 L-20924.8,-1002.2 L-20919.6,-1017.8 Z" fill="#efe6d2" stroke="#b7ad98" stroke-width="1"/><path d="M-13288.6,-1094.9 L-13272.2,-1076.8 L-13227.1,-1083.2 L-13175.9,-1072.4 L-13079.3,-1058.3 L-12978.4,-1045.4 L-12970.6,-1025.9 L-12905.7,-1029.1 L-12842.7,-1015.4 L-12921.0,-1002.5 L-13058.2,-1012.4 L-13107.7,-1030.9 L-13195.1,-1009.0 L-13320.5,-987.7 L-13350.8,-1011.8 L-13470.2,-1007.8 L-13393.6,-1028.2 L-13382.3,-1060.6 L-13352.3,-1098.3 L-13288.6,-1094.9 Z" fill="#efe6d2" stroke="#b7ad98" stroke-width="1"/><path d="M-7060.7,-1127.8 L-7081.0,-1101.2 L-6981.5,-1073.1 L-7096.1,-1041.7 L-7350.3,-1013.5 L-7426.3,-1006.0 L-7542.3,-1012.0 L-7788.3,-1025.1 L-7701.5,-1043.3 L-7893.4,-1063.4 L-7737.3,-1071.4 L-7741.1,-1083.5 L-7926.1,-1093.0 L-7866.5,-1119.9 L-7732.9,-1126.0 L-7595.5,-1098.0 L-7461.6,-1120.4 L-7350.7,-1108.8 L-7206.9,-1130.8 L-7060.7,-1127.8 Z" fill="#efe6d2" stroke="#b7ad98" stroke-width="1"/><path d="M-12469.2,-1156.4 L-12568.0,-1154.3 L-12590.0,-1174.5 L-12552.6,-1197.5 L-12471.8,-1203.2 L-12403.0,-1191.8 L-12402.0,-1174.2 L-12411.9,-1168.5 L-12469.2,-1156.4 Z" fill="#efe6d2" stroke="#b7ad98" stroke-width="1"/><path d="M-21209.0,-1133.1 L-21149.5,-1122.9 L-21170.0,-1152.8 L-20930.7,-1146.7 L-20758.1,-1108.1 L-20845.5,-1090.2 L-20990.0,-1085.9 L-20992.2,-1045.7 L-21027.5,-1037.1 L-21110.0,-1038.3 L-21177.2,-1052.7 L-21294.4,-1064.7 L-21314.1,-1082.6 L-21403.6,-1089.3 L-21503.9,-1084.0 L-21551.8,-1098.4 L-21532.6,-1113.7 L-21638.2,-1103.9 L-21598.4,-1084.5 L-21648.4,-1067.0 L-21648.4,-1231.1 L-21432.5,-1199.6 L-21201.4,-1158.7 L-21209.0,-1133.1 Z" fill="#efe6d2" stroke="#b7ad98" stroke-width="1"/><path d="M-14212.9,-1237.0 L-14267.8,-1222.6 L-14386.6,-1235.1 L-14458.4,-1230.6 L-14578.7,-1249.1 L-14501.2,-1261.8 L-14439.5,-1279.7 L-14346.0,-1268.0 L-14293.1,-1260.6 L-14266.7,-1252.8 L-14212.9,-1237.0 Z" fill="#efe6d2" stroke="#b7ad98" stroke-width="1"/><path d="M10084.9,-1308.0 L9988.2,-1305.9 L9972.5,-1319.0 L10084.9,-1336.2 L10084.9,-1308.0 Z" fill="#efe6d2" stroke="#b7ad98" stroke-width="1"/><path d="M-21533.3,-1310.5 L-21648.4,-1308.0 L-21648.4,-1336.2 L-21637.2,-1337.9 L-21562.4,-1337.8 L-21434.9,-1326.0 L-21442.5,-1320.4 L-21533.3,-1310.5 Z" fill="#efe6d2" stroke="#b7ad98" stroke-width="1"/><path d="M-13763.3,-1253.1 L-13763.7,-1211.0 L-13645.9,-1243.2 L-13540.5,-1216.7 L-13566.8,-1186.2 L-13481.5,-1158.4 L-13389.5,-1188.2 L-13325.2,-1223.7 L-13320.4,-1268.9 L-13195.1,-1265.8 L-13064.8,-1259.7 L-12946.5,-1239.3 L-12941.2,-1218.8 L-13006.8,-1196.9 L-12944.6,-1174.8 L-12955.8,-1154.8 L-13128.4,-1126.0 L-13251.0,-1119.7 L-13342.2,-1132.0 L-13368.5,-1111.4 L-13453.4,-1076.7 L-13479.2,-1058.6 L-13581.4,-1030.8 L-13707.6,-1028.1 L-13777.2,-1010.7 L-13783.0,-983.9 L-13885.5,-978.7 L-13993.4,-945.4 L-14089.0,-899.0 L-14123.2,-866.5 L-14128.0,-818.7 L-13998.5,-811.9 L-13958.8,-773.3 L-13917.6,-742.1 L-13794.2,-750.2 L-13630.4,-732.4 L-13542.3,-716.7 L-13479.2,-697.3 L-13368.8,-685.9 L-13275.4,-668.6 L-13129.8,-666.2 L-13034.0,-662.2 L-13048.4,-626.6 L-13020.9,-585.2 L-12957.1,-539.1 L-12826.0,-500.0 L-12758.1,-513.4 L-12710.4,-555.7 L-12756.4,-620.8 L-12818.6,-642.4 L-12677.5,-661.7 L-12577.6,-690.6 L-12528.8,-719.3 L-12536.0,-746.8 L-12595.8,-781.8 L-12702.9,-812.8 L-12598.9,-855.9 L-12637.3,-893.2 L-12666.7,-957.5 L-12605.4,-967.0 L-12454.3,-955.8 L-12363.6,-951.8 L-12290.6,-962.6 L-12208.5,-948.7 L-12100.0,-924.8 L-12073.2,-908.8 L-11916.0,-905.7 L-11918.7,-871.1 L-11889.4,-819.1 L-11808.9,-812.6 L-11745.0,-788.4 L-11617.3,-811.2 L-11533.0,-856.7 L-11474.7,-875.8 L-11406.0,-839.1 L-11291.2,-786.5 L-11193.8,-737.1 L-11229.2,-711.3 L-11112.0,-688.1 L-11032.7,-664.5 L-10892.2,-653.9 L-10835.6,-640.7 L-10800.7,-605.9 L-10732.0,-600.4 L-10696.6,-584.9 L-10690.2,-538.6 L-10754.1,-523.1 L-10817.4,-508.7 L-10962.7,-494.1 L-11073.6,-460.2 L-11222.6,-453.6 L-11411.1,-462.2 L-11543.4,-462.5 L-11634.7,-459.7 L-11708.5,-430.1 L-11820.9,-411.9 L-11948.1,-357.4 L-12049.5,-319.4 L-11974.6,-326.1 L-11833.2,-380.2 L-11648.3,-414.5 L-11516.4,-418.6 L-11438.3,-398.5 L-11521.6,-370.8 L-11493.6,-326.4 L-11464.9,-295.4 L-11350.4,-274.8 L-11204.7,-280.7 L-11116.3,-327.0 L-11110.2,-297.2 L-11053.3,-282.3 L-11162.3,-255.3 L-11357.6,-230.8 L-11445.0,-214.1 L-11543.5,-184.5 L-11610.4,-187.5 L-11613.8,-222.3 L-11460.8,-256.4 L-11601.8,-255.0 L-11699.8,-250.0 L-11684.6,-236.5 L-11778.7,-216.6 L-11869.3,-202.4 L-11962.4,-190.2 L-12013.0,-163.2 L-12024.0,-156.5 L-12024.9,-134.6 L-11995.8,-112.8 L-11959.2,-111.8 L-11968.5,-126.8 L-11942.0,-117.6 L-11949.1,-105.9 L-12008.6,-99.2 L-12050.9,-100.0 L-12116.1,-92.8 L-12154.4,-90.8 L-12205.7,-88.7 L-12279.2,-76.8 L-12149.7,-84.6 L-12123.6,-76.8 L-12247.0,-64.4 L-12303.2,-64.3 L-12300.5,-69.4 L-12327.4,-58.0 L-12301.4,-56.1 L-12320.5,-26.5 L-12384.6,5.2 L-12391.2,-5.4 L-12410.5,-7.5 L-12439.4,-17.8 L-12421.1,4.3 L-12400.2,11.7 L-12397.9,27.2 L-12426.2,43.2 L-12475.8,76.1 L-12483.8,74.5 L-12456.5,46.5 L-12501.6,30.7 L-12511.9,-3.5 L-12528.9,14.3 L-12510.1,40.5 L-12565.7,34.3 L-12507.6,47.3 L-12503.8,86.4 L-12478.6,89.3 L-12469.4,103.5 L-12457.0,144.7 L-12513.0,175.3 L-12604.2,187.5 L-12662.2,211.7 L-12706.2,214.3 L-12750.8,229.4 L-12763.4,243.2 L-12860.2,270.0 L-12909.9,289.6 L-12951.4,314.0 L-12965.0,343.2 L-12949.4,371.8 L-12920.0,407.1 L-12880.8,436.2 L-12880.4,454.0 L-12838.6,501.8 L-12841.4,529.5 L-12845.2,545.5 L-12867.2,570.7 L-12893.6,575.9 L-12936.9,570.9 L-12950.9,552.8 L-12984.4,543.3 L-13031.1,507.9 L-13072.1,476.4 L-13085.3,460.3 L-13067.2,433.0 L-13091.9,410.3 L-13160.6,375.9 L-13195.0,369.6 L-13284.0,388.3 L-13299.7,386.2 L-13342.5,367.0 L-13397.8,356.8 L-13497.4,362.0 L-13575.6,357.4 L-13642.9,360.3 L-13680.3,366.0 L-13663.4,377.6 L-13664.9,394.3 L-13646.1,402.5 L-13662.9,407.9 L-13695.7,401.8 L-13728.7,409.6 L-13792.7,408.3 L-13858.5,386.6 L-13935.4,391.7 L-13999.5,382.2 L-14054.3,385.1 L-14128.5,394.7 L-14208.8,425.2 L-14296.4,443.0 L-14344.5,462.6 L-14364.8,481.2 L-14365.6,509.6 L-14361.2,529.3 L-14344.5,543.4 L-14344.4,543.4 L-14344.6,543.5 L-14378.7,579.5 L-14394.1,609.1 L-14400.6,664.3 L-14409.0,684.4 L-14393.8,706.9 L-14366.4,727.0 L-14348.8,758.9 L-14290.3,789.5 L-14269.7,813.0 L-14235.3,833.3 L-14141.7,844.2 L-14105.2,861.5 L-14027.9,850.0 L-13960.7,845.8 L-13894.7,838.4 L-13839.2,831.3 L-13783.1,814.5 L-13762.1,790.5 L-13754.9,755.9 L-13739.7,743.9 L-13680.0,733.1 L-13586.8,723.6 L-13508.7,725.0 L-13455.2,721.5 L-13434.1,730.2 L-13437.1,750.1 L-13484.5,774.5 L-13505.4,799.6 L-13489.2,806.8 L-13502.4,824.6 L-13524.5,856.7 L-13546.8,846.1 L-13565.3,846.8 L-13564.9,852.9 L-13548.2,853.1 L-13549.7,864.3 L-13564.0,882.1 L-13556.3,888.4 L-13565.5,903.2 L-13559.9,907.1 L-13570.1,927.9 L-13587.5,938.8 L-13603.4,940.1 L-13620.8,954.4 L-13592.1,961.9 L-13584.5,955.7 L-13558.6,961.0 L-13549.5,962.6 L-13530.2,955.3 L-13504.9,954.8 L-13496.8,958.1 L-13483.1,956.1 L-13442.1,959.8 L-13401.4,958.7 L-13373.0,954.2 L-13362.7,949.5 L-13334.6,951.7 L-13313.5,954.5 L-13290.4,953.5 L-13272.9,949.9 L-13232.7,955.6 L-13218.7,956.6 L-13191.8,964.2 L-13166.3,973.5 L-13134.3,979.8 L-13111.1,991.1 L-13118.6,995.1 L-13123.1,1004.3 L-13114.1,1019.3 L-13134.4,1033.3 L-13143.9,1049.9 L-13146.7,1068.1 L-13142.0,1078.7 L-13139.8,1097.2 L-13153.3,1101.3 L-13161.5,1118.9 L-13155.4,1129.7 L-13173.5,1140.3 L-13169.4,1151.4 L-13155.9,1158.2 L-13133.5,1180.5 L-13099.5,1197.1 L-13058.1,1214.7 L-13026.4,1229.5 L-13028.2,1238.2 L-12993.1,1240.0 L-12984.7,1236.7 L-12960.5,1246.8 L-12917.1,1243.8 L-12879.6,1233.4 L-12826.1,1225.1 L-12796.0,1212.8 L-12747.3,1215.2 L-12750.6,1219.3 L-12701.5,1220.7 L-12662.3,1227.8 L-12633.5,1240.2 L-12600.3,1251.6 L-12554.8,1252.9 L-12488.6,1224.1 L-12452.4,1219.7 L-12451.5,1206.1 L-12435.2,1171.3 L-12384.7,1152.2 L-12329.1,1151.4 L-12322.1,1142.9 L-12253.1,1146.3 L-12183.8,1125.5 L-12149.4,1116.3 L-12106.8,1096.5 L-12075.5,1099.0 L-12052.4,1109.8 L-12069.5,1123.7 L-12072.0,1133.4 L-12123.8,1138.2 L-12095.0,1156.9 L-12096.1,1178.4 L-12135.0,1202.4 L-12101.6,1235.0 L-12063.6,1232.3 L-12043.8,1202.6 L-12071.2,1188.1 L-12075.6,1156.9 L-11965.8,1140.2 L-11978.0,1120.8 L-11947.1,1107.8 L-11915.5,1136.7 L-11853.7,1137.4 L-11796.4,1160.4 L-11793.0,1174.0 L-11713.8,1174.3 L-11619.6,1170.1 L-11569.2,1188.6 L-11501.7,1193.6 L-11452.3,1180.8 L-11451.3,1170.4 L-11342.1,1167.9 L-11236.5,1167.4 L-11311.3,1179.5 L-11281.2,1199.0 L-11210.7,1202.0 L-11143.9,1222.3 L-11129.8,1255.3 L-11083.9,1254.4 L-11049.4,1264.1 L-10991.5,1279.2 L-10936.9,1306.0 L-10934.5,1327.2 L-10901.3,1328.2 L-10854.0,1348.3 L-10819.2,1362.6 L-10713.6,1370.9 L-10704.1,1363.5 L-10632.9,1360.5 L-10538.1,1371.6 L-10508.1,1376.1 L-10443.2,1385.8 L-10349.9,1420.6 L-10335.3,1437.4 L-10305.3,1435.5 L-10283.5,1458.3 L-10234.0,1530.3 L-10186.9,1537.1 L-10184.5,1565.5 L-10250.8,1599.4 L-10223.4,1611.8 L-10067.6,1618.3 L-10064.4,1659.6 L-9997.5,1632.5 L-9886.5,1647.3 L-9740.1,1672.5 L-9697.1,1696.6 L-9711.6,1719.4 L-9609.1,1706.7 L-9437.5,1728.5 L-9305.8,1726.9 L-9175.5,1761.0 L-9062.9,1807.1 L-8995.0,1819.0 L-8919.7,1820.6 L-8887.7,1833.6 L-8857.8,1886.0 L-8843.2,1911.0 L-8878.3,1979.0 L-8923.1,2005.9 L-9047.4,2063.2 L-9103.5,2109.8 L-9168.8,2145.5 L-9190.8,2146.3 L-9215.4,2176.6 L-9209.2,2253.7 L-9233.7,2317.2 L-9243.1,2344.3 L-9271.0,2360.6 L-9286.6,2415.6 L-9376.0,2469.4 L-9391.0,2511.9 L-9462.3,2529.7 L-9483.0,2554.4 L-9578.7,2554.3 L-9717.4,2570.1 L-9779.5,2588.5 L-9878.2,2600.5 L-9981.9,2633.3 L-10056.6,2674.1 L-10069.4,2704.9 L-10054.7,2727.6 L-10071.2,2769.2 L-10091.2,2789.3 L-10152.8,2811.9 L-10250.6,2884.4 L-10328.1,2917.1 L-10388.1,2936.3 L-10428.3,2975.5 L-10486.6,2999.0 L-10524.7,3024.9 L-10624.3,3047.8 L-10689.3,3039.6 L-10737.0,3044.0 L-10818.5,3026.3 L-10878.3,3027.6 L-10932.0,3004.9 L-10938.0,3026.4 L-10826.1,3061.6 L-10838.2,3090.0 L-10783.1,3108.0 L-10787.6,3128.1 L-10872.3,3180.9 L-11003.0,3203.0 L-11179.7,3211.5 L-11276.6,3207.4 L-11258.1,3231.9 L-11276.1,3262.8 L-11259.8,3283.5 L-11312.7,3298.0 L-11403.0,3303.7 L-11487.8,3288.7 L-11521.8,3299.5 L-11509.5,3340.4 L-11450.0,3352.8 L-11401.7,3339.8 L-11375.5,3361.2 L-11456.6,3374.0 L-11527.4,3399.6 L-11540.4,3441.0 L-11561.2,3463.0 L-11644.5,3463.2 L-11713.6,3484.3 L-11738.9,3515.1 L-11652.2,3545.3 L-11567.9,3553.6 L-11598.2,3590.5 L-11702.4,3613.8 L-11759.6,3662.0 L-11840.1,3678.3 L-11876.2,3697.6 L-11847.7,3740.3 L-11789.1,3764.2 L-11826.2,3762.1 L-11904.7,3761.8 L-11947.1,3771.9 L-12026.6,3786.8 L-12040.9,3825.2 L-12078.2,3826.2 L-12177.6,3812.8 L-12278.5,3784.2 L-12388.2,3760.6 L-12415.8,3734.5 L-12390.8,3710.4 L-12435.2,3683.0 L-12446.5,3612.8 L-12409.0,3573.2 L-12315.9,3541.4 L-12449.7,3529.4 L-12365.7,3493.0 L-12335.7,3424.6 L-12237.8,3439.1 L-12191.7,3353.8 L-12250.9,3342.8 L-12278.4,3394.2 L-12334.0,3388.4 L-12306.3,3329.6 L-12276.3,3253.3 L-12235.8,3225.1 L-12261.2,3184.9 L-12268.4,3138.6 L-12231.3,3137.2 L-12177.2,3070.7 L-12116.3,3004.8 L-12078.9,2943.5 L-12099.2,2881.8 L-12072.9,2847.8 L-12083.5,2797.0 L-12031.9,2746.7 L-12016.1,2667.1 L-11987.8,2581.5 L-11960.2,2489.5 L-11966.6,2422.1 L-11985.0,2364.1 L-12073.4,2340.5 L-12081.0,2323.6 L-12255.8,2282.2 L-12413.8,2237.2 L-12481.8,2211.8 L-12518.4,2177.8 L-12503.9,2165.9 L-12578.5,2111.9 L-12665.5,2035.9 L-12748.7,1953.9 L-12784.8,1935.2 L-12812.5,1904.8 L-12881.0,1878.0 L-12943.8,1861.3 L-12915.3,1842.9 L-12958.0,1803.6 L-12930.6,1774.8 L-12860.3,1748.8 L-12813.4,1718.0 L-12832.4,1700.0 L-12866.1,1719.2 L-12918.9,1701.1 L-12901.0,1689.5 L-12915.9,1652.1 L-12885.0,1645.9 L-12868.8,1620.3 L-12835.5,1593.7 L-12841.6,1576.9 L-12793.3,1568.1 L-12732.7,1551.7 L-12744.7,1538.9 L-12711.8,1535.9 L-12715.7,1515.2 L-12695.0,1500.3 L-12651.3,1497.5 L-12614.2,1471.7 L-12580.4,1450.1 L-12612.9,1440.3 L-12596.3,1416.4 L-12616.2,1378.7 L-12597.3,1367.9 L-12611.2,1333.1 L-12646.9,1311.1 L-12676.3,1299.3 L-12695.2,1277.0 L-12673.4,1266.0 L-12695.7,1263.2 L-12712.2,1249.6 L-12756.1,1238.2 L-12794.7,1240.8 L-12812.5,1255.1 L-12848.1,1265.5 L-12867.4,1266.9 L-12876.0,1275.5 L-12833.9,1297.8 L-12858.0,1303.1 L-12870.7,1309.2 L-12911.8,1311.3 L-12927.0,1286.7 L-12938.5,1293.7 L-12967.6,1291.3 L-12985.4,1274.7 L-13021.5,1272.0 L-13044.4,1267.1 L-13082.2,1267.2 L-13084.9,1276.1 L-13095.1,1269.9 L-13142.9,1260.8 L-13160.8,1252.1 L-13150.6,1245.0 L-13153.8,1235.9 L-13178.3,1226.0 L-13213.0,1217.9 L-13243.3,1212.7 L-13249.1,1200.6 L-13272.2,1193.3 L-13266.6,1205.2 L-13284.1,1215.1 L-13304.3,1203.6 L-13332.6,1199.6 L-13344.7,1191.3 L-13344.2,1178.7 L-13332.5,1165.8 L-13357.4,1160.0 L-13337.2,1152.0 L-13367.7,1139.0 L-13408.9,1122.4 L-13428.3,1108.5 L-13465.4,1095.6 L-13509.6,1077.0 L-13499.8,1070.6 L-13485.3,1076.8 L-13478.6,1073.9 L-13493.8,1061.0 L-13520.6,1057.5 L-13530.4,1067.2 L-13581.4,1066.5 L-13613.1,1062.6 L-13649.6,1054.4 L-13698.6,1051.9 L-13723.5,1043.0 L-13768.8,1035.8 L-13823.7,1035.1 L-13864.1,1026.9 L-13911.5,1009.9 L-14011.2,965.6 L-14056.7,952.2 L-14128.7,941.5 L-14177.9,944.5 L-14248.7,960.0 L-14293.1,964.0 L-14355.4,953.2 L-14421.4,945.3 L-14503.8,926.5 L-14569.9,920.7 L-14669.7,901.5 L-14743.5,881.9 L-14765.7,870.9 L-14815.0,868.4 L-14905.2,855.4 L-14941.9,836.6 L-15036.6,813.2 L-15080.8,787.2 L-15101.8,767.2 L-15072.4,763.2 L-15081.5,751.4 L-15061.2,740.7 L-15060.8,726.5 L-15090.5,708.0 L-15098.5,691.6 L-15128.0,670.8 L-15205.7,629.9 L-15294.3,597.8 L-15337.2,572.1 L-15412.9,555.3 L-15429.1,545.2 L-15415.6,519.8 L-15460.6,510.2 L-15512.6,490.1 L-15534.6,461.4 L-15582.0,458.1 L-15633.2,436.4 L-15674.5,416.3 L-15678.3,403.5 L-15725.7,372.4 L-15757.0,340.9 L-15755.6,325.1 L-15819.4,308.7 L-15848.8,310.5 L-15899.1,299.2 L-15913.2,315.9 L-15898.6,335.7 L-15890.1,366.6 L-15859.8,383.6 L-15794.4,411.9 L-15779.9,421.6 L-15766.5,424.6 L-15754.9,438.7 L-15739.2,438.1 L-15721.5,464.7 L-15694.7,475.2 L-15676.0,489.7 L-15620.6,510.7 L-15591.3,549.0 L-15565.1,567.0 L-15540.7,586.3 L-15535.8,608.1 L-15493.3,609.4 L-15458.0,628.1 L-15426.0,646.5 L-15428.1,653.9 L-15465.2,669.0 L-15480.8,668.8 L-15504.1,643.8 L-15561.8,620.3 L-15625.3,600.4 L-15670.4,589.9 L-15667.5,559.8 L-15680.9,537.5 L-15722.9,524.7 L-15783.5,506.4 L-15795.1,511.7 L-15817.3,500.9 L-15871.7,491.0 L-15923.7,467.1 L-15917.2,464.0 L-15880.9,466.3 L-15848.2,450.9 L-15844.9,432.3 L-15912.8,403.0 L-15964.5,391.6 L-15997.0,365.8 L-16029.7,338.9 L-16070.6,305.9 L-16106.4,268.9 L-16121.2,247.9 L-16178.3,224.2 L-16219.5,219.3 L-16229.1,207.4 L-16278.5,205.4 L-16310.1,194.2 L-16392.0,190.2 L-16414.5,183.5 L-16425.2,161.0 L-16510.7,119.6 L-16584.1,62.3 L-16581.0,52.8 L-16619.9,39.2 L-16688.1,4.7 L-16700.3,-28.9 L-16747.2,-51.4 L-16727.9,-85.5 L-16731.0,-120.8 L-16759.1,-152.4 L-16724.7,-191.2 L-16703.2,-265.9 L-16719.2,-321.1 L-16747.0,-356.4 L-16772.7,-375.5 L-16762.0,-383.5 L-16634.6,-369.5 L-16587.6,-330.7 L-16565.8,-341.5 L-16579.9,-375.3 L-16609.9,-409.1 L-16621.7,-409.2 L-16792.4,-449.6 L-16855.4,-467.4 L-17015.0,-484.4 L-17064.1,-520.9 L-17051.5,-546.2 L-17164.3,-563.7 L-17179.8,-596.9 L-17286.4,-626.8 L-17288.3,-648.0 L-17336.7,-663.5 L-17414.4,-676.6 L-17439.4,-712.5 L-17553.0,-745.8 L-17600.5,-784.7 L-17685.1,-787.4 L-17825.3,-788.4 L-17928.6,-800.2 L-18110.9,-843.0 L-18195.3,-850.8 L-18349.4,-865.5 L-18471.5,-862.0 L-18644.8,-880.9 L-18749.6,-898.4 L-18847.5,-889.7 L-18829.3,-861.1 L-18878.0,-858.5 L-18980.0,-849.9 L-19057.6,-836.0 L-19155.3,-827.2 L-19167.9,-851.5 L-19128.3,-891.9 L-19034.6,-904.6 L-19058.7,-914.9 L-19171.1,-891.9 L-19231.3,-864.5 L-19358.3,-835.2 L-19293.8,-815.3 L-19377.1,-785.7 L-19471.8,-768.4 L-19560.1,-755.9 L-19581.9,-737.7 L-19719.5,-716.4 L-19747.4,-697.1 L-19850.5,-679.5 L-19911.0,-682.6 L-19993.3,-671.1 L-20082.7,-657.1 L-20156.0,-643.3 L-20307.3,-631.6 L-20321.1,-638.5 L-20224.7,-657.7 L-20138.5,-670.5 L-20044.5,-693.0 L-19935.2,-697.6 L-19891.7,-714.5 L-19769.5,-739.2 L-19749.8,-747.4 L-19684.7,-761.9 L-19669.5,-793.2 L-19624.7,-817.5 L-19726.3,-805.0 L-19754.8,-812.1 L-19802.5,-797.1 L-19860.1,-818.0 L-19883.8,-803.2 L-19916.8,-823.8 L-20004.9,-807.3 L-20059.0,-807.3 L-20066.6,-831.8 L-20050.7,-846.9 L-20107.4,-861.6 L-20222.1,-853.7 L-20296.4,-873.0 L-20356.8,-882.9 L-20357.1,-906.2 L-20425.1,-923.8 L-20391.0,-947.4 L-20319.1,-970.4 L-20287.7,-991.6 L-20216.3,-994.6 L-20155.8,-988.0 L-20084.7,-1007.8 L-20020.7,-1004.3 L-19953.6,-1017.1 L-19970.0,-1035.9 L-20019.3,-1043.3 L-19954.0,-1059.2 L-20008.2,-1058.7 L-20101.7,-1049.7 L-20128.6,-1040.7 L-20198.1,-1049.7 L-20322.8,-1045.1 L-20451.9,-1055.0 L-20488.9,-1071.5 L-20600.4,-1095.5 L-20476.5,-1112.7 L-20279.9,-1132.8 L-20207.4,-1132.8 L-20219.4,-1112.2 L-20033.4,-1113.8 L-20104.9,-1139.3 L-20213.4,-1155.0 L-20276.1,-1175.6 L-20360.6,-1193.2 L-20481.8,-1206.2 L-20432.4,-1227.8 L-20276.0,-1229.1 L-20164.8,-1247.9 L-20143.8,-1267.9 L-20053.7,-1287.5 L-19967.9,-1292.2 L-19800.8,-1310.5 L-19719.7,-1307.7 L-19584.1,-1329.7 L-19450.7,-1321.0 L-19386.9,-1302.4 L-19347.8,-1310.4 L-19198.8,-1307.9 L-19204.1,-1298.5 L-19069.2,-1291.5 L-18979.3,-1295.6 L-18793.6,-1282.6 L-18624.1,-1278.7 L-18556.2,-1273.4 L-18438.9,-1280.0 L-18305.2,-1267.7 L-18209.4,-1261.9 L-18045.0,-1252.0 L-17906.2,-1232.2 L-17814.3,-1228.4 L-17736.9,-1245.6 L-17630.2,-1258.4 L-17499.2,-1253.4 L-17367.2,-1271.5 L-17222.9,-1281.7 L-17162.4,-1264.7 L-17096.6,-1274.3 L-17076.9,-1293.7 L-17016.0,-1289.3 L-16867.0,-1252.4 L-16749.6,-1280.3 L-16737.7,-1249.0 L-16629.4,-1255.8 L-16596.1,-1267.8 L-16489.3,-1265.4 L-16354.5,-1248.2 L-16148.2,-1233.1 L-16026.9,-1226.1 L-15940.6,-1228.7 L-15821.7,-1207.8 L-15945.7,-1187.4 L-15786.3,-1178.6 L-15548.4,-1183.4 L-15473.3,-1190.6 L-15379.4,-1165.9 L-15283.5,-1186.8 L-15373.4,-1204.2 L-15316.5,-1218.3 L-15209.2,-1220.2 L-15138.7,-1224.4 L-15067.5,-1214.5 L-14979.0,-1192.2 L-14880.5,-1195.4 L-14724.8,-1176.9 L-14588.0,-1183.4 L-14459.4,-1182.4 L-14469.5,-1208.0 L-14391.2,-1215.2 L-14254.6,-1201.3 L-14255.1,-1162.3 L-14199.0,-1195.1 L-14128.1,-1194.0 L-14088.2,-1235.4 L-14182.7,-1260.8 L-14285.5,-1277.5 L-14278.5,-1323.0 L-14174.3,-1352.8 L-14058.0,-1346.2 L-13968.8,-1328.1 L-13849.1,-1281.6 L-13927.3,-1261.4 L-13763.3,-1253.1 Z" fill="#efe6d2" stroke="#b7ad98" stroke-width="1"/><path d="M-15845.4,-1402.3 L-15889.4,-1383.0 L-15693.2,-1395.5 L-15570.7,-1374.7 L-15471.1,-1395.7 L-15390.5,-1382.2 L-15318.4,-1341.7 L-15274.1,-1358.8 L-15336.7,-1401.0 L-15259.2,-1407.0 L-15171.5,-1400.4 L-15072.8,-1383.8 L-15017.5,-1343.7 L-14990.2,-1314.7 L-14842.1,-1294.3 L-14683.0,-1274.8 L-14692.6,-1256.7 L-14837.3,-1253.3 L-14781.1,-1237.5 L-14810.8,-1222.4 L-14970.3,-1228.9 L-15122.0,-1240.0 L-15224.4,-1237.5 L-15389.9,-1223.5 L-15651.4,-1216.3 L-15770.1,-1213.5 L-15817.9,-1232.9 L-15938.2,-1244.1 L-16016.5,-1239.5 L-16125.1,-1272.1 L-16066.4,-1276.5 L-15930.4,-1283.5 L-15806.1,-1281.7 L-15691.0,-1288.9 L-15861.5,-1298.5 L-16049.9,-1295.2 L-16174.9,-1296.0 L-16221.4,-1311.2 L-16016.9,-1327.7 L-16152.9,-1327.1 L-16306.8,-1337.9 L-16232.9,-1368.8 L-16171.5,-1385.2 L-15935.5,-1410.2 L-15845.4,-1402.3 Z" fill="#efe6d2" stroke="#b7ad98" stroke-width="1"/><path d="M-14993.3,-1414.6 L-15070.8,-1387.4 L-15208.3,-1416.2 L-15178.4,-1422.0 L-15060.3,-1423.6 L-14993.3,-1414.6 Z" fill="#efe6d2" stroke="#b7ad98" stroke-width="1"/><path d="M-12511.0,-1401.5 L-12503.2,-1390.1 L-12596.9,-1391.3 L-12691.9,-1392.2 L-12788.3,-1386.7 L-12813.9,-1389.2 L-12910.9,-1411.0 L-12907.1,-1425.8 L-12864.8,-1428.6 L-12663.0,-1424.1 L-12511.0,-1401.5 Z" fill="#efe6d2" stroke="#b7ad98" stroke-width="1"/><path d="M-13412.1,-1403.8 L-13342.6,-1378.1 L-13261.2,-1411.3 L-13037.7,-1428.2 L-12886.5,-1385.6 L-12899.6,-1358.7 L-12725.3,-1370.6 L-12641.9,-1387.0 L-12446.3,-1366.2 L-12324.9,-1346.5 L-12313.5,-1328.6 L-12149.8,-1337.9 L-12057.9,-1311.6 L-11845.1,-1295.4 L-11768.4,-1278.8 L-11685.0,-1240.3 L-11846.8,-1221.1 L-11639.2,-1194.2 L-11499.3,-1185.1 L-11372.6,-1147.3 L-11233.9,-1144.6 L-11261.3,-1115.7 L-11416.1,-1067.8 L-11524.5,-1085.4 L-11663.1,-1125.0 L-11777.2,-1119.9 L-11788.3,-1096.3 L-11695.6,-1072.3 L-11575.9,-1053.4 L-11539.6,-1042.5 L-11482.3,-1001.7 L-11512.6,-972.1 L-11623.8,-983.3 L-11844.9,-1016.2 L-11720.3,-980.8 L-11628.5,-955.9 L-11614.2,-941.5 L-11853.2,-957.9 L-12042.4,-981.9 L-12149.2,-1001.9 L-12118.4,-1013.5 L-12249.9,-1034.7 L-12378.3,-1054.7 L-12376.9,-1042.7 L-12631.8,-1036.2 L-12706.3,-1050.3 L-12648.3,-1080.6 L-12482.6,-1081.3 L-12301.2,-1086.6 L-12330.6,-1101.3 L-12299.9,-1121.8 L-12185.8,-1162.0 L-12210.1,-1180.2 L-12244.1,-1194.3 L-12379.1,-1214.2 L-12557.6,-1228.3 L-12501.2,-1238.7 L-12594.5,-1264.3 L-12672.2,-1266.6 L-12741.7,-1280.6 L-12788.9,-1268.5 L-12948.7,-1263.2 L-13269.5,-1272.4 L-13456.0,-1284.5 L-13598.9,-1290.7 L-13672.2,-1305.1 L-13580.0,-1323.9 L-13705.3,-1324.1 L-13733.2,-1365.8 L-13665.4,-1402.6 L-13574.8,-1419.4 L-13347.2,-1430.4 L-13412.1,-1403.8 Z" fill="#efe6d2" stroke="#b7ad98" stroke-width="1"/><path d="M-14628.0,-1432.0 L-14522.9,-1423.4 L-14365.6,-1428.6 L-14342.7,-1416.6 L-14425.0,-1396.9 L-14291.6,-1379.2 L-14307.5,-1342.1 L-14452.0,-1326.2 L-14536.9,-1329.6 L-14597.9,-1345.3 L-14817.0,-1377.1 L-14815.2,-1390.3 L-14635.2,-1385.2 L-14732.3,-1412.1 L-14628.0,-1432.0 Z" fill="#efe6d2" stroke="#b7ad98" stroke-width="1"/><path d="M6876.6,-1406.0 L6743.0,-1405.8 L6562.3,-1410.3 L6546.9,-1412.5 L6630.5,-1428.8 L6740.7,-1432.6 L6866.0,-1416.9 L6876.6,-1406.0 Z" fill="#efe6d2" stroke="#b7ad98" stroke-width="1"/><path d="M-13996.9,-1387.9 L-14091.4,-1357.1 L-14192.0,-1358.7 L-14247.0,-1394.8 L-14245.6,-1415.3 L-14199.6,-1432.8 L-14112.1,-1444.0 L-13928.4,-1442.6 L-13760.0,-1432.6 L-13891.8,-1395.9 L-13996.9,-1387.9 Z" fill="#efe6d2" stroke="#b7ad98" stroke-width="1"/><path d="M-16400.1,-1331.4 L-16632.1,-1310.9 L-16678.7,-1328.9 L-16882.2,-1350.7 L-16852.5,-1364.1 L-16783.3,-1398.2 L-16706.9,-1425.3 L-16793.0,-1450.5 L-16495.1,-1457.0 L-16369.2,-1448.4 L-16144.1,-1446.1 L-16058.5,-1434.2 L-15963.8,-1416.9 L-16074.7,-1406.5 L-16290.8,-1377.5 L-16400.1,-1348.7 L-16400.1,-1331.4 Z" fill="#efe6d2" stroke="#b7ad98" stroke-width="1"/><path d="M7504.9,-1483.1 L7403.1,-1466.8 L7262.2,-1470.5 L7098.4,-1486.8 L7119.5,-1500.1 L7283.7,-1493.9 L7504.9,-1483.1 Z" fill="#efe6d2" stroke="#b7ad98" stroke-width="1"/><path d="M-14033.6,-1478.8 L-14081.5,-1462.9 L-14209.5,-1465.9 L-14316.4,-1476.7 L-14269.4,-1495.2 L-14142.7,-1506.3 L-14065.7,-1491.9 L-14033.6,-1478.8 Z" fill="#efe6d2" stroke="#b7ad98" stroke-width="1"/><path d="M7007.3,-1502.8 L6938.0,-1472.2 L6613.1,-1473.4 L6466.9,-1463.6 L6292.3,-1490.4 L6339.6,-1518.7 L6455.9,-1526.5 L6688.7,-1524.6 L7007.3,-1502.8 Z" fill="#efe6d2" stroke="#b7ad98" stroke-width="1"/><path d="M-14464.4,-1550.5 L-14397.0,-1531.4 L-14394.2,-1510.3 L-14434.4,-1479.6 L-14579.7,-1475.4 L-14674.5,-1482.0 L-14672.7,-1506.0 L-14817.1,-1502.9 L-14822.7,-1534.7 L-14727.9,-1533.4 L-14595.1,-1547.4 L-14471.2,-1545.1 L-14464.4,-1550.5 Z" fill="#efe6d2" stroke="#b7ad98" stroke-width="1"/><path d="M-15320.4,-1529.1 L-15285.9,-1514.5 L-15207.4,-1521.4 L-15115.0,-1519.6 L-15099.5,-1499.4 L-15153.1,-1479.9 L-15451.6,-1473.5 L-15674.0,-1455.6 L-15808.1,-1454.7 L-15819.3,-1468.1 L-15636.2,-1486.3 L-16034.5,-1481.4 L-16157.7,-1488.8 L-16037.5,-1529.0 L-15954.5,-1540.5 L-15706.4,-1526.6 L-15549.8,-1502.3 L-15395.8,-1499.1 L-15521.9,-1538.5 L-15441.1,-1553.5 L-15350.1,-1548.8 L-15320.4,-1529.1 Z" fill="#efe6d2" stroke="#b7ad98" stroke-width="1"/><path d="M-710.1,-1303.4 L-762.2,-1299.8 L-1050.2,-1305.2 L-1073.6,-1323.5 L-1233.2,-1334.5 L-1246.0,-1356.7 L-1155.9,-1365.6 L-1158.9,-1388.0 L-984.1,-1423.1 L-1065.1,-1428.2 L-854.1,-1464.3 L-877.9,-1483.0 L-680.8,-1504.7 L-389.8,-1531.2 L-96.4,-1538.9 L54.6,-1554.2 L226.1,-1559.5 L287.4,-1543.3 L228.2,-1530.4 L-84.1,-1510.0 L-353.3,-1490.4 L-627.1,-1451.2 L-758.5,-1411.0 L-896.7,-1371.4 L-878.7,-1337.2 L-710.1,-1303.4 Z" fill="#efe6d2" stroke="#b7ad98" stroke-width="1"/><path d="M-14128.0,-1566.0 L-14030.1,-1552.8 L-13856.6,-1552.9 L-13780.5,-1539.3 L-13800.6,-1523.9 L-13699.4,-1514.6 L-13643.5,-1504.8 L-13524.6,-1503.0 L-13395.9,-1499.5 L-13255.8,-1508.4 L-13076.3,-1511.9 L-12933.1,-1509.0 L-12838.7,-1493.5 L-12819.0,-1476.5 L-12874.0,-1465.5 L-13005.4,-1456.7 L-13118.3,-1461.7 L-13371.1,-1455.4 L-13552.1,-1454.6 L-13694.4,-1459.7 L-13928.6,-1473.0 L-13959.1,-1495.6 L-13969.9,-1516.0 L-14058.3,-1534.0 L-14240.7,-1539.0 L-14342.8,-1551.8 L-14309.7,-1568.6 L-14128.0,-1566.0 Z" fill="#efe6d2" stroke="#b7ad98" stroke-width="1"/><path d="M-16024.5,-1588.6 L-16036.6,-1556.9 L-16104.5,-1542.6 L-16186.8,-1540.6 L-16350.7,-1523.0 L-16491.8,-1516.7 L-16611.2,-1525.6 L-16611.2,-1525.6 L-16461.6,-1556.4 L-16280.6,-1583.1 L-16145.4,-1582.5 L-16024.5,-1588.6 Z" fill="#efe6d2" stroke="#b7ad98" stroke-width="1"/><path d="M3647.5,-1560.9 L3671.2,-1540.6 L3751.8,-1550.6 L4009.5,-1550.1 L4208.2,-1530.0 L4278.9,-1514.6 L4257.0,-1493.1 L4159.5,-1481.0 L3927.9,-1458.1 L3861.6,-1445.9 L3970.9,-1440.1 L4101.3,-1429.7 L4180.7,-1437.5 L4225.7,-1411.1 L4264.4,-1421.8 L4405.3,-1428.3 L4688.1,-1421.5 L4709.6,-1402.2 L5078.1,-1396.1 L5083.2,-1427.6 L5270.2,-1420.4 L5411.0,-1420.6 L5553.3,-1398.9 L5593.9,-1372.5 L5541.7,-1355.3 L5652.5,-1322.9 L5791.1,-1306.2 L5876.1,-1349.4 L6017.5,-1330.9 L6167.8,-1341.9 L6338.4,-1329.3 L6403.3,-1340.8 L6547.5,-1335.0 L6483.9,-1373.3 L6600.2,-1391.1 L7396.4,-1364.4 L7471.4,-1339.9 L7702.1,-1308.4 L8058.1,-1316.2 L8233.6,-1309.5 L8307.0,-1292.4 L8296.2,-1262.3 L8404.8,-1250.6 L8522.8,-1259.0 L8679.1,-1260.1 L8845.6,-1252.0 L9012.6,-1256.6 L9166.2,-1220.0 L9275.4,-1233.2 L9204.1,-1259.5 L9243.4,-1277.8 L9524.6,-1266.3 L9708.0,-1268.7 L9961.5,-1249.1 L10084.9,-1231.1 L10084.9,-1067.0 L10084.3,-1066.8 L9970.9,-1048.7 L9856.7,-1051.8 L9936.2,-1029.8 L9988.7,-995.9 L10029.4,-984.8 L10039.6,-967.8 L10016.9,-956.9 L9852.6,-965.8 L9606.2,-934.9 L9527.8,-930.1 L9392.9,-901.1 L9265.0,-875.8 L9232.6,-857.1 L9106.5,-885.6 L8876.8,-853.3 L8836.7,-868.6 L8751.8,-851.0 L8633.9,-856.6 L8605.5,-829.5 L8499.7,-789.7 L8502.9,-773.0 L8603.3,-763.8 L8591.5,-703.9 L8509.7,-702.3 L8471.9,-667.9 L8508.6,-650.2 L8354.4,-629.1 L8323.8,-582.1 L8192.4,-572.1 L8166.0,-530.2 L8039.0,-491.9 L8006.4,-520.2 L7968.6,-580.3 L7919.4,-671.8 L7961.8,-728.9 L8036.2,-753.5 L8040.8,-772.7 L8177.7,-781.9 L8335.2,-833.8 L8486.9,-876.1 L8645.4,-909.0 L8716.3,-967.0 L8609.2,-963.6 L8556.2,-929.6 L8332.6,-884.4 L8260.4,-935.1 L8032.9,-921.1 L7812.3,-852.0 L7885.1,-826.8 L7688.3,-816.0 L7552.0,-811.8 L7558.4,-841.6 L7421.4,-847.8 L7312.2,-827.6 L7042.7,-834.7 L6752.7,-822.5 L6467.2,-742.1 L6129.4,-645.0 L6268.2,-639.8 L6311.6,-614.0 L6397.2,-604.9 L6453.6,-625.4 L6550.3,-622.8 L6677.5,-577.5 L6680.5,-542.4 L6611.6,-501.3 L6604.2,-452.1 L6564.4,-386.3 L6431.6,-326.7 L6402.0,-298.2 L6282.4,-250.3 L6163.6,-202.7 L6106.7,-178.4 L5989.3,-154.2 L5933.7,-153.7 L5878.3,-173.7 L5760.0,-143.6 L5746.2,-129.9 L5712.7,-132.4 L5674.5,-118.4 L5648.2,-104.4 L5651.5,-74.8 L5605.9,-65.7 L5590.3,-58.5 L5557.0,-46.3 L5498.3,-39.5 L5460.1,-28.5 L5457.3,-10.6 L5447.0,-6.1 L5482.1,0.6 L5532.0,18.7 L5608.1,67.3 L5629.9,93.9 L5630.6,141.4 L5597.4,164.0 L5517.6,171.9 L5447.1,189.0 L5367.7,192.5 L5357.8,170.1 L5374.2,139.2 L5335.2,96.4 L5400.7,89.4 L5340.3,54.2 L5297.5,46.3 L5286.9,54.1 L5261.0,57.5 L5257.9,49.8 L5235.1,46.0 L5211.4,39.4 L5235.5,21.3 L5256.3,16.5 L5248.5,8.9 L5270.8,-13.3 L5265.0,-20.0 L5213.6,-24.5 L5172.0,-35.5 L5048.8,-23.6 L4983.9,-4.3 L4889.0,6.9 L4935.8,-12.2 L4917.4,-28.2 L4987.2,-55.9 L4940.6,-77.4 L4863.8,-62.9 L4764.2,-34.3 L4709.9,-7.7 L4623.5,-5.7 L4578.5,13.5 L4625.0,41.3 L4697.1,48.1 L4700.1,66.6 L4769.8,78.6 L4868.6,49.2 L4946.8,65.2 L5003.8,66.3 L5018.1,87.9 L4893.3,99.4 L4852.2,121.6 L4766.4,142.3 L4721.2,171.1 L4816.1,193.7 L4850.7,234.3 L4904.3,272.0 L4964.2,303.6 L4962.8,334.2 L4907.4,345.4 L4928.5,367.4 L4980.4,380.2 L4966.9,413.7 L4944.5,446.4 L4895.2,450.1 L4830.9,494.6 L4759.5,548.7 L4677.6,597.8 L4556.4,635.8 L4433.8,670.5 L4334.4,675.2 L4280.6,693.5 L4250.1,680.1 L4200.2,700.6 L4077.0,721.2 L3983.8,727.5 L3953.7,771.0 L3904.8,773.4 L3881.7,743.5 L3902.6,727.6 L3784.3,714.4 L3742.7,721.1 L3625.0,756.4 L3551.5,795.3 L3532.1,823.8 L3599.6,867.2 L3682.0,921.0 L3762.0,946.5 L3815.5,979.5 L3855.9,1055.7 L3844.0,1128.2 L3770.5,1155.3 L3669.5,1181.8 L3597.6,1216.1 L3487.7,1254.5 L3455.7,1228.1 L3480.5,1200.2 L3415.1,1176.8 L3341.3,1170.8 L3305.5,1149.3 L3260.9,1106.8 L3181.7,1087.9 L3106.4,1088.6 L3119.3,1056.3 L3041.7,1056.5 L3034.7,1101.8 L2987.1,1162.0 L2958.4,1198.3 L2964.5,1228.1 L3021.9,1229.4 L3057.7,1267.0 L3073.5,1302.7 L3122.7,1326.2 L3176.1,1331.0 L3221.8,1352.4 L3242.1,1356.2 L3294.1,1381.1 L3331.1,1408.7 L3336.2,1436.4 L3326.8,1455.1 L3335.3,1469.3 L3341.8,1493.7 L3372.8,1505.0 L3407.5,1541.4 L3405.8,1555.3 L3343.3,1558.1 L3259.9,1527.6 L3155.6,1494.9 L3145.3,1473.9 L3094.3,1446.4 L3082.2,1412.3 L3050.4,1389.8 L3060.0,1359.9 L3040.6,1342.4 L3005.8,1326.6 L2990.7,1306.2 L2943.9,1283.0 L2901.2,1263.4 L2886.7,1287.6 L2870.0,1264.8 L2879.6,1239.1 L2905.5,1199.6 L2897.0,1169.0 L2924.1,1137.5 L2894.5,1113.1 L2901.7,1068.3 L2865.9,1046.9 L2837.1,997.6 L2821.2,945.6 L2783.1,911.5 L2725.0,932.2 L2624.9,961.5 L2575.4,957.9 L2520.8,948.2 L2551.2,897.2 L2532.8,858.6 L2463.7,811.1 L2474.5,796.3 L2422.9,791.0 L2360.3,757.4 L2335.2,736.0 L2330.1,715.0 L2313.3,695.2 L2276.5,671.2 L2195.3,669.6 L2203.3,686.5 L2175.6,709.4 L2138.1,701.1 L2125.3,708.6 L2100.3,704.1 L2066.2,700.4 L2053.6,715.4 L1993.6,714.9 L1885.0,723.5 L1890.0,754.5 L1843.0,778.8 L1716.1,806.5 L1617.5,855.0 L1551.2,880.9 L1463.4,907.9 L1463.2,926.8 L1419.3,937.0 L1339.9,951.7 L1298.7,953.9 L1272.3,985.3 L1290.6,1038.9 L1295.3,1073.0 L1258.0,1112.2 L1257.6,1182.1 L1211.9,1184.1 L1171.8,1215.5 L1198.6,1229.1 L1118.3,1240.8 L1088.6,1268.8 L1053.2,1280.6 L969.8,1242.1 L929.0,1184.5 L895.1,1143.0 L864.3,1123.5 L817.4,1083.9 L795.5,1032.4 L780.3,1006.7 L700.1,950.1 L663.6,870.3 L637.3,817.7 L637.6,767.8 L620.5,729.2 L492.2,753.9 L430.1,748.9 L314.9,699.0 L357.3,684.1 L331.3,668.0 L227.9,633.0 L163.3,622.6 L137.0,593.0 L68.9,561.7 L-93.5,569.4 L-236.8,570.2 L-360.9,576.0 L-526.7,563.5 L-622.8,554.1 L-722.3,548.7 L-759.9,498.2 L-802.1,490.9 L-869.8,498.3 L-958.7,518.2 L-1066.5,504.5 L-1155.4,472.9 L-1240.3,461.2 L-1299.2,422.1 L-1364.2,367.2 L-1411.7,373.9 L-1467.7,360.2 L-1500.6,376.3 L-1552.9,374.3 L-1534.5,392.5 L-1542.4,401.9 L-1514.0,432.9 L-1479.5,468.4 L-1436.1,477.8 L-1421.0,492.3 L-1360.9,509.6 L-1355.6,526.6 L-1364.4,540.3 L-1353.2,554.1 L-1327.9,565.7 L-1316.1,579.2 L-1303.0,589.3 L-1308.8,559.3 L-1285.0,537.7 L-1261.0,533.3 L-1234.3,546.2 L-1232.7,570.3 L-1251.9,594.5 L-1235.1,610.2 L-1219.4,608.2 L-1216.2,619.5 L-1147.2,613.0 L-1074.3,614.1 L-1021.1,615.3 L-960.7,587.5 L-894.9,561.1 L-839.2,535.7 L-813.6,521.7 L-802.7,525.3 L-811.0,542.3 L-822.5,549.7 L-810.5,582.3 L-771.0,610.4 L-721.8,625.3 L-657.1,630.7 L-604.9,638.2 L-565.1,661.8 L-541.4,675.5 L-509.8,680.7 L-510.0,689.9 L-542.0,714.5 L-556.1,726.0 L-593.3,739.2 L-626.2,767.4 L-666.2,765.2 L-684.5,775.0 L-698.6,795.9 L-687.8,823.4 L-696.1,828.5 L-736.7,828.4 L-791.7,843.8 L-800.3,863.8 L-820.5,872.5 L-875.3,872.2 L-909.8,882.6 L-909.4,899.2 L-952.0,910.6 L-1000.7,906.7 L-1059.6,920.6 L-1100.3,923.0 L-1164.1,934.0 L-1181.2,952.3 L-1183.2,966.3 L-1271.0,983.7 L-1411.9,1002.9 L-1490.8,1032.0 L-1529.6,1034.3 L-1556.1,1031.8 L-1607.6,1048.9 L-1663.8,1056.8 L-1737.7,1059.0 L-1760.0,1061.3 L-1779.3,1072.2 L-1802.4,1075.2 L-1816.0,1085.7 L-1859.7,1084.8 L-1887.8,1090.3 L-1948.8,1088.2 L-1971.8,1064.2 L-1969.2,1041.7 L-1983.6,1029.5 L-2000.9,999.1 L-2026.2,982.2 L-2008.6,980.1 L-2017.6,961.3 L-2006.9,953.4 L-2010.8,935.4 L-2022.3,917.9 L-2048.9,905.5 L-2055.7,889.0 L-2101.2,874.3 L-2148.2,839.8 L-2173.1,806.2 L-2234.0,777.9 L-2273.3,771.1 L-2331.7,731.9 L-2341.9,703.2 L-2338.2,678.8 L-2388.7,633.2 L-2430.0,617.1 L-2477.7,608.6 L-2506.6,585.0 L-2501.8,575.7 L-2526.3,554.3 L-2552.1,545.2 L-2586.5,514.5 L-2640.1,481.3 L-2685.1,453.0 L-2729.0,453.2 L-2715.3,430.6 L-2711.4,416.2 L-2700.5,399.8 L-2703.4,393.8 L-2728.2,410.4 L-2747.1,441.5 L-2771.1,462.9 L-2791.7,470.1 L-2821.1,456.8 L-2860.8,438.4 L-2923.7,379.4 L-2932.8,383.2 L-2896.3,426.6 L-2842.1,468.0 L-2775.5,532.1 L-2743.0,554.5 L-2714.7,577.8 L-2635.5,623.4 L-2653.1,630.5 L-2650.2,657.3 L-2547.6,694.3 L-2532.1,702.7 L-2503.7,743.1 L-2523.0,750.6 L-2510.2,793.0 L-2477.8,842.1 L-2444.3,852.3 L-2396.0,867.5 L-2344.8,915.1 L-2320.5,952.9 L-2272.2,973.0 L-2151.9,1011.9 L-2102.9,1035.4 L-2055.1,1059.1 L-2027.6,1073.3 L-1984.2,1085.7 L-1963.4,1098.4 L-1966.2,1115.5 L-2016.5,1125.4 L-1978.6,1136.6 L-1949.9,1144.2 L-1932.6,1161.2 L-1892.9,1178.5 L-1849.1,1178.6 L-1766.0,1168.1 L-1670.1,1163.2 L-1592.5,1150.4 L-1548.8,1147.7 L-1517.3,1140.2 L-1467.1,1138.7 L-1438.9,1137.9 L-1398.3,1131.8 L-1351.5,1127.7 L-1309.8,1113.6 L-1276.4,1113.5 L-1274.4,1124.8 L-1282.6,1148.8 L-1282.2,1170.4 L-1300.8,1185.3 L-1325.7,1229.8 L-1368.1,1275.8 L-1422.6,1328.4 L-1498.3,1388.7 L-1573.5,1434.8 L-1677.2,1491.0 L-1765.4,1524.3 L-1897.2,1565.2 L-1979.4,1596.6 L-2075.9,1646.4 L-2096.2,1668.1 L-2116.1,1677.9 L-2177.9,1694.3 L-2199.6,1711.5 L-2232.7,1714.5 L-2245.2,1743.6 L-2273.5,1760.2 L-2290.7,1787.6 L-2326.2,1801.2 L-2366.9,1851.9 L-2361.7,1875.2 L-2305.2,1890.2 L-2302.6,1900.9 L-2326.8,1925.8 L-2321.8,1938.3 L-2327.6,1958.0 L-2296.8,1983.8 L-2260.3,2024.4 L-2227.9,2033.4 L-2213.7,2051.9 L-2217.3,2092.9 L-2206.4,2129.0 L-2203.0,2193.4 L-2187.5,2213.5 L-2213.8,2243.0 L-2248.0,2271.6 L-2304.1,2297.1 L-2384.7,2312.7 L-2484.1,2332.7 L-2583.6,2376.9 L-2617.6,2384.4 L-2679.1,2413.7 L-2715.4,2423.2 L-2722.9,2452.6 L-2681.1,2483.8 L-2663.7,2507.9 L-2662.6,2520.2 L-2647.0,2518.2 L-2649.5,2558.6 L-2663.8,2577.7 L-2643.0,2584.7 L-2656.2,2601.9 L-2693.0,2616.5 L-2765.7,2630.4 L-2871.7,2652.7 L-2910.4,2667.9 L-2902.8,2685.3 L-2880.3,2688.1 L-2887.9,2709.7 L-2909.9,2739.7 L-2920.3,2773.9 L-2943.1,2792.5 L-3003.2,2813.3 L-3020.5,2819.3 L-3057.9,2840.2 L-3082.4,2861.3 L-3132.4,2890.8 L-3232.1,2933.3 L-3294.3,2958.0 L-3360.8,2976.8 L-3452.9,2992.7 L-3497.9,2994.9 L-3509.3,3006.3 L-3562.8,3000.2 L-3606.5,3008.1 L-3702.0,3000.1 L-3755.4,3005.1 L-3791.9,3003.0 L-3882.8,3019.2 L-3958.1,3025.8 L-4012.5,3041.3 L-4052.6,3042.3 L-4089.9,3027.6 L-4119.7,3026.9 L-4157.7,3008.5 L-4161.8,3014.2 L-4173.6,3003.1 L-4173.1,2979.0 L-4201.7,2951.4 L-4173.3,2943.9 L-4175.6,2912.3 L-4233.3,2873.8 L-4277.6,2838.9 L-4277.7,2838.8 L-4341.0,2785.3 L-4406.5,2754.2 L-4441.0,2724.1 L-4460.5,2684.0 L-4482.2,2654.2 L-4511.7,2590.8 L-4513.7,2541.5 L-4525.0,2519.0 L-4559.3,2502.1 L-4604.8,2468.1 L-4651.1,2418.7 L-4670.3,2392.8 L-4742.1,2352.6 L-4747.4,2321.0 L-4755.7,2295.1 L-4743.5,2258.9 L-4713.1,2221.2 L-4708.5,2203.6 L-4679.9,2166.4 L-4658.9,2149.6 L-4608.3,2122.6 L-4580.0,2104.3 L-4570.7,2073.8 L-4575.3,2050.5 L-4601.7,2035.7 L-4625.2,2010.8 L-4646.8,1986.0 L-4642.1,1977.5 L-4615.0,1961.2 L-4641.7,1921.4 L-4659.8,1893.8 L-4703.9,1867.8 L-4695.6,1859.8 L-4707.9,1847.0 L-4731.5,1816.0 L-4803.9,1772.4 L-4894.5,1730.9 L-4952.7,1696.9 L-5006.2,1654.3 L-5003.4,1640.7 L-4984.2,1627.5 L-4962.8,1597.5 L-4945.0,1567.0 L-4961.5,1560.8 L-4931.2,1514.5 L-4918.3,1482.0 L-4952.8,1454.8 L-4993.0,1447.8 L-5010.9,1429.4 L-5033.5,1423.5 L-5032.5,1412.1 L-5124.0,1426.9 L-5157.5,1424.7 L-5191.4,1434.0 L-5261.9,1433.1 L-5309.0,1407.3 L-5338.1,1377.5 L-5400.5,1350.4 L-5466.7,1350.9 L-5544.5,1350.9 L-5617.4,1355.7 L-5688.3,1364.5 L-5826.5,1388.6 L-5875.5,1402.7 L-5955.0,1414.6 L-6033.5,1402.9 L-6073.6,1403.4 L-6135.1,1395.3 L-6191.7,1395.8 L-6296.1,1403.0 L-6357.3,1414.8 L-6444.6,1430.0 L-6461.6,1428.9 L-6484.7,1429.2 L-6575.5,1409.6 L-6655.6,1378.3 L-6730.7,1355.7 L-6790.1,1329.2 L-6813.8,1326.1 L-6877.3,1309.5 L-6923.2,1287.5 L-6938.6,1272.4 L-6949.4,1242.0 L-6988.1,1217.6 L-7022.4,1201.5 L-7044.9,1196.2 L-7067.0,1188.0 L-7077.0,1169.8 L-7089.9,1160.7 L-7115.5,1154.0 L-7162.5,1136.8 L-7199.7,1134.0 L-7219.9,1122.4 L-7219.4,1116.2 L-7246.3,1107.4 L-7251.9,1098.6 L-7266.3,1067.1 L-7255.1,1048.8 L-7291.4,1016.7 L-7335.4,1002.1 L-7296.6,994.3 L-7253.9,965.3 L-7233.0,944.2 L-7240.6,922.0 L-7216.0,901.7 L-7205.0,862.9 L-7214.8,822.3 L-7225.4,801.8 L-7216.6,781.2 L-7239.4,761.7 L-7285.9,743.9 L-7282.1,726.5 L-7277.9,707.4 L-7244.1,696.2 L-7215.2,674.7 L-7220.9,660.8 L-7190.6,631.7 L-7141.6,605.6 L-7111.9,598.9 L-7088.5,574.9 L-7086.4,553.0 L-7054.6,527.5 L-6995.9,512.5 L-6940.0,470.5 L-6894.1,454.1 L-6812.1,449.5 L-6742.7,421.4 L-6698.5,410.4 L-6624.9,376.0 L-6646.9,324.8 L-6613.4,289.4 L-6601.6,267.7 L-6544.9,239.9 L-6456.5,221.1 L-6391.1,204.0 L-6332.2,161.4 L-6304.5,136.1 L-6239.6,136.3 L-6186.5,153.8 L-6102.6,150.9 L-6011.3,160.0 L-5973.1,160.5 L-5888.3,138.0 L-5793.0,130.8 L-5737.4,113.8 L-5652.5,101.3 L-5503.1,94.0 L-5357.3,90.6 L-5312.8,96.7 L-5229.8,80.5 L-5135.6,80.2 L-5099.8,89.8 L-5039.5,87.3 L-4943.5,70.6 L-4881.8,75.6 L-4884.4,96.4 L-4809.6,81.3 L-4803.3,89.2 L-4847.4,109.3 L-4848.0,128.4 L-4817.5,138.6 L-4829.1,174.3 L-4887.1,195.0 L-4870.4,217.4 L-4824.8,218.1 L-4802.6,237.7 L-4769.1,244.1 L-4665.5,258.3 L-4628.5,254.8 L-4554.9,261.6 L-4437.9,280.0 L-4396.6,316.6 L-4317.5,324.6 L-4193.2,341.9 L-4099.3,362.3 L-4056.4,351.6 L-4014.1,332.7 L-4034.7,301.2 L-4007.0,281.1 L-3943.5,261.8 L-3882.8,256.2 L-3763.5,264.7 L-3733.5,283.1 L-3700.7,283.2 L-3672.6,290.3 L-3585.0,295.1 L-3563.5,308.7 L-3446.3,308.0 L-3361.4,318.9 L-3273.9,331.1 L-3233.1,337.5 L-3165.2,324.4 L-3129.0,312.6 L-3051.2,309.2 L-2988.5,314.4 L-2964.5,334.8 L-2944.1,321.4 L-2873.4,331.1 L-2804.7,333.5 L-2761.3,323.1 L-2735.7,309.5 L-2741.7,307.2 L-2718.4,287.9 L-2700.5,256.9 L-2687.9,246.4 L-2685.5,246.0 L-2654.1,212.5 L-2610.2,183.5 L-2608.6,182.0 L-2616.8,150.5 L-2595.2,133.6 L-2627.7,114.9 L-2594.3,99.4 L-2648.0,103.0 L-2721.8,93.5 L-2782.4,117.2 L-2916.1,121.8 L-2987.5,99.7 L-3082.5,98.3 L-3102.9,115.4 L-3163.8,120.3 L-3249.0,98.4 L-3345.2,99.1 L-3397.5,58.1 L-3461.9,35.3 L-3419.0,3.3 L-3474.9,-16.4 L-3377.1,-55.8 L-3241.3,-57.4 L-3204.3,-88.7 L-3036.3,-83.3 L-2930.4,-110.0 L-2827.6,-121.6 L-2681.8,-122.5 L-2528.0,-93.5 L-2401.5,-77.5 L-2298.8,-83.9 L-2222.9,-80.2 L-2118.9,-101.7 L-2105.7,-119.3 L-2127.7,-147.4 L-2178.7,-162.6 L-2227.5,-167.3 L-2259.8,-179.9 L-2372.2,-214.7 L-2472.8,-230.2 L-2548.9,-254.4 L-2484.7,-261.0 L-2411.6,-295.4 L-2460.9,-311.7 L-2331.0,-328.5 L-2333.3,-337.6 L-2412.4,-330.9 L-2482.8,-327.6 L-2541.5,-314.3 L-2624.0,-312.1 L-2699.9,-296.8 L-2694.8,-271.2 L-2651.6,-261.2 L-2561.7,-263.7 L-2578.9,-249.0 L-2675.4,-241.9 L-2795.1,-218.1 L-2844.1,-226.4 L-2824.7,-245.8 L-2921.0,-257.8 L-2905.4,-265.7 L-2821.1,-279.4 L-2846.6,-288.9 L-2983.6,-299.3 L-2989.7,-314.6 L-3071.3,-309.5 L-3104.0,-286.9 L-3172.3,-256.4 L-3170.3,-245.8 L-3213.0,-237.0 L-3239.8,-240.8 L-3264.4,-191.1 L-3310.2,-174.1 L-3342.4,-144.6 L-3313.9,-121.1 L-3303.5,-105.3 L-3226.5,-92.0 L-3242.5,-81.9 L-3347.2,-79.6 L-3384.8,-66.9 L-3458.4,-44.7 L-3486.1,-63.9 L-3484.9,-72.4 L-3538.6,-73.6 L-3584.6,-77.5 L-3691.4,-66.8 L-3630.3,-43.6 L-3675.0,-36.9 L-3724.1,-36.9 L-3770.8,-58.1 L-3787.3,-49.0 L-3767.6,-24.4 L-3723.5,-5.1 L-3756.7,3.9 L-3707.6,22.9 L-3664.0,34.8 L-3662.7,58.1 L-3744.2,47.2 L-3718.2,68.2 L-3774.2,72.5 L-3740.8,108.8 L-3799.3,109.3 L-3871.6,91.4 L-3904.7,58.5 L-3920.1,31.1 L-3954.5,12.2 L-3999.6,-11.3 L-4005.6,-23.0 L-4020.6,-25.9 L-4022.3,-35.0 L-4071.2,-48.8 L-4078.8,-68.4 L-4071.4,-96.5 L-4059.4,-109.3 L-4074.2,-115.8 L-4092.6,-119.0 L-4117.4,-132.4 L-4155.4,-140.6 L-4238.3,-155.8 L-4289.4,-170.7 L-4370.0,-182.9 L-4444.2,-213.2 L-4426.4,-216.3 L-4466.6,-233.6 L-4468.2,-247.5 L-4524.9,-254.0 L-4551.9,-236.2 L-4577.9,-250.0 L-4576.0,-264.3 L-4572.8,-265.0 L-4553.2,-268.7 L-4623.4,-274.7 L-4695.0,-260.1 L-4690.2,-239.6 L-4701.0,-227.9 L-4672.1,-206.9 L-4589.4,-186.2 L-4545.1,-152.2 L-4447.0,-119.0 L-4377.9,-119.2 L-4356.4,-110.1 L-4381.2,-101.9 L-4302.2,-87.0 L-4237.5,-74.6 L-4161.9,-53.1 L-4152.8,-45.4 L-4169.2,-30.7 L-4218.2,-49.9 L-4294.7,-56.7 L-4331.9,-30.0 L-4268.1,-14.8 L-4278.6,6.7 L-4315.4,9.1 L-4362.5,44.5 L-4399.3,47.6 L-4398.9,35.0 L-4380.9,13.0 L-4361.8,4.2 L-4396.2,-19.7 L-4423.1,-40.5 L-4459.7,-45.6 L-4485.7,-63.4 L-4542.4,-70.9 L-4580.5,-87.4 L-4645.7,-90.1 L-4714.6,-108.7 L-4795.2,-135.5 L-4855.2,-159.2 L-4882.7,-199.9 L-4926.5,-204.7 L-4998.2,-218.3 L-5038.8,-212.7 L-5089.7,-193.6 L-5126.4,-190.6 L-5206.2,-167.3 L-5380.1,-178.5 L-5508.5,-165.1 L-5518.6,-140.3 L-5513.9,-116.4 L-5597.4,-89.0 L-5710.3,-80.3 L-5718.2,-66.4 L-5772.4,-43.6 L-5806.3,-10.1 L-5772.0,13.5 L-5823.0,31.8 L-5842.0,58.6 L-5908.6,66.8 L-5971.0,98.5 L-6082.9,99.1 L-6166.9,98.3 L-6222.1,112.9 L-6255.8,128.4 L-6298.9,125.0 L-6331.5,111.1 L-6356.5,87.4 L-6438.8,81.0 L-6474.2,91.7 L-6520.7,85.9 L-6566.2,90.5 L-6552.7,58.2 L-6561.0,32.9 L-6600.5,29.1 L-6621.5,13.5 L-6614.5,-13.4 L-6579.4,-28.4 L-6573.1,-45.0 L-6554.7,-69.8 L-6556.7,-87.2 L-6574.3,-102.0 L-6578.2,-115.9 L-6573.7,-145.2 L-6609.7,-163.1 L-6485.0,-192.8 L-6377.2,-185.4 L-6258.8,-185.6 L-6165.0,-178.6 L-6091.8,-180.8 L-5949.4,-179.4 L-5903.8,-204.1 L-5887.0,-286.1 L-5978.0,-329.4 L-6043.0,-350.2 L-6177.7,-366.0 L-6186.6,-396.1 L-6072.3,-405.0 L-5924.3,-394.4 L-5952.2,-441.0 L-5869.0,-423.4 L-5663.8,-455.5 L-5637.3,-489.2 L-5560.2,-497.5 L-5489.6,-505.7 L-5444.1,-517.0 L-5366.9,-577.5 L-5246.3,-594.8 L-5173.1,-593.6 L-5155.9,-602.3 L-5082.2,-604.6 L-5065.9,-595.5 L-5006.0,-615.8 L-5026.2,-631.2 L-5030.2,-654.6 L-5066.0,-677.4 L-5068.7,-719.5 L-5054.0,-730.7 L-5028.7,-743.0 L-4951.0,-745.6 L-4920.1,-756.9 L-4849.2,-768.5 L-4852.2,-747.4 L-4878.2,-733.9 L-4867.7,-722.4 L-4819.9,-716.2 L-4841.4,-700.6 L-4867.7,-705.1 L-4931.1,-675.5 L-4907.2,-655.4 L-4905.6,-639.5 L-4816.5,-629.9 L-4817.5,-615.3 L-4727.9,-623.0 L-4678.3,-634.3 L-4578.8,-618.0 L-4537.2,-604.9 L-4476.9,-617.0 L-4339.4,-636.1 L-4228.3,-650.0 L-4140.4,-643.1 L-4133.7,-633.0 L-4048.7,-632.5 L-4028.6,-650.6 L-3907.0,-664.0 L-3925.7,-698.6 L-3922.7,-729.6 L-3879.4,-755.4 L-3796.3,-769.5 L-3726.3,-738.7 L-3655.6,-739.5 L-3638.6,-771.1 L-3628.4,-795.4 L-3660.8,-790.3 L-3716.8,-804.9 L-3724.4,-828.5 L-3613.0,-840.0 L-3501.9,-846.0 L-3406.2,-839.2 L-3315.3,-840.4 L-3215.1,-863.2 L-3307.4,-882.7 L-3467.4,-879.5 L-3622.4,-864.4 L-3765.9,-855.7 L-3816.9,-878.1 L-3902.3,-891.7 L-3882.6,-932.2 L-3925.4,-969.4 L-3883.4,-993.3 L-3803.5,-1019.2 L-3601.8,-1063.9 L-3543.0,-1072.5 L-3552.1,-1089.9 L-3674.7,-1109.3 L-3826.4,-1097.7 L-3911.8,-1069.0 L-3898.1,-1043.7 L-4038.3,-1010.6 L-4208.5,-975.2 L-4272.7,-917.2 L-4210.0,-888.2 L-4125.7,-865.4 L-4206.6,-818.9 L-4298.3,-809.3 L-4331.9,-740.2 L-4382.0,-701.6 L-4488.9,-705.6 L-4538.8,-672.9 L-4640.9,-671.0 L-4668.9,-709.9 L-4742.7,-756.7 L-4809.7,-814.9 L-4868.9,-840.2 L-5042.9,-792.5 L-5160.4,-782.9 L-5282.3,-803.9 L-5313.9,-848.1 L-5341.7,-943.2 L-5260.6,-969.7 L-5027.8,-1004.2 L-4853.8,-1046.7 L-4692.4,-1104.1 L-4480.6,-1183.6 L-4333.0,-1214.6 L-4090.7,-1266.3 L-3897.3,-1284.3 L-3752.3,-1282.1 L-3618.0,-1316.2 L-3457.3,-1314.4 L-3299.0,-1322.6 L-3023.3,-1292.5 L-3136.8,-1281.4 L-3040.3,-1255.6 L-2949.3,-1269.9 L-2804.5,-1245.0 L-2563.1,-1235.2 L-2230.1,-1188.6 L-2162.4,-1169.1 L-2156.6,-1141.7 L-2254.4,-1120.0 L-2398.4,-1109.0 L-2791.9,-1140.3 L-2856.6,-1135.1 L-2712.9,-1104.9 L-2701.5,-1043.8 L-2588.1,-1031.2 L-2519.2,-1020.5 L-2507.8,-1040.5 L-2562.8,-1058.8 L-2504.8,-1073.8 L-2291.7,-1048.2 L-2217.4,-1058.2 L-2276.8,-1088.3 L-2071.4,-1128.7 L-1990.0,-1126.3 L-1907.7,-1111.9 L-1856.3,-1140.2 L-1929.8,-1164.7 L-1886.7,-1189.4 L-1951.5,-1214.9 L-1704.9,-1201.7 L-1654.6,-1178.6 L-1766.2,-1173.6 L-1765.6,-1150.6 L-1696.2,-1136.6 L-1560.0,-1145.5 L-1538.4,-1171.8 L-1354.3,-1191.4 L-1046.7,-1226.7 L-980.2,-1224.7 L-1067.1,-1199.7 L-957.8,-1195.4 L-894.6,-1209.5 L-729.4,-1210.6 L-598.5,-1227.7 L-498.0,-1202.9 L-397.9,-1230.1 L-490.2,-1254.0 L-444.4,-1267.6 L-184.0,-1255.1 L-62.0,-1242.3 L257.4,-1195.2 L316.4,-1216.8 L226.8,-1238.5 L224.2,-1247.3 L118.0,-1251.3 L147.1,-1270.8 L99.9,-1303.0 L97.2,-1316.1 L259.9,-1353.4 L317.7,-1390.9 L383.3,-1398.9 L616.7,-1388.1 L635.1,-1365.2 L551.5,-1331.8 L606.3,-1318.7 L634.7,-1289.9 L614.7,-1233.4 L711.9,-1208.2 L674.1,-1180.7 L501.4,-1122.2 L602.2,-1116.2 L637.2,-1131.0 L734.2,-1141.6 L757.6,-1161.9 L833.9,-1181.5 L782.6,-1205.0 L823.7,-1232.1 L727.3,-1235.5 L706.1,-1258.4 L776.4,-1299.8 L661.9,-1333.4 L819.7,-1361.1 L799.3,-1390.4 L843.3,-1391.3 L889.6,-1368.5 L854.8,-1328.8 L949.1,-1321.2 L908.9,-1350.9 L1056.5,-1367.1 L1239.4,-1369.3 L1402.3,-1345.8 L1323.9,-1380.1 L1315.1,-1424.0 L1468.4,-1432.3 L1680.4,-1430.5 L1871.4,-1435.9 L1799.8,-1457.4 L1901.8,-1484.4 L2003.1,-1485.6 L2174.5,-1506.0 L2407.2,-1511.5 L2436.7,-1522.8 L2668.1,-1526.6 L2740.2,-1517.3 L2938.1,-1539.2 L3100.0,-1538.5 L3124.3,-1556.3 L3208.5,-1573.8 L3416.6,-1590.7 L3567.8,-1577.4 L3447.8,-1567.3 L3647.5,-1560.9 Z M-1452.8,-91.3 L-1408.0,-62.1 L-1366.9,-60.1 L-1339.7,-49.0 L-1412.3,-45.7 L-1427.7,-13.7 L-1442.8,0.7 L-1475.2,10.3 L-1472.8,30.7 L-1444.9,61.1 L-1361.3,69.6 L-1300.1,90.3 L-1174.8,97.4 L-1037.1,86.5 L-1028.7,76.9 L-1045.1,47.7 L-1032.3,4.7 L-1101.0,-9.3 L-1078.4,-37.5 L-1136.9,-39.9 L-1117.4,-74.6 L-1034.3,-64.5 L-956.8,-77.6 L-1021.0,-102.3 L-1046.3,-125.9 L-1117.3,-115.4 L-1126.3,-85.2 L-1153.8,-111.9 L-1158.7,-121.9 L-1137.1,-139.1 L-1153.9,-153.4 L-1256.0,-167.5 L-1295.8,-204.5 L-1344.5,-214.9 L-1347.4,-228.3 L-1261.7,-224.4 L-1258.3,-254.5 L-1183.3,-261.2 L-1106.3,-255.0 L-1090.5,-295.2 L-1106.2,-320.7 L-1194.4,-318.7 L-1269.3,-328.7 L-1371.4,-310.6 L-1453.6,-302.0 L-1493.8,-277.6 L-1579.2,-270.8 L-1666.8,-228.3 L-1586.7,-189.2 L-1595.4,-161.5 L-1499.1,-113.0 L-1452.8,-91.3 Z" fill="#efe6d2" stroke="#b7ad98" stroke-width="1"/><path d="M-14053.6,-1583.4 L-14093.8,-1582.2 L-14259.0,-1584.9 L-14282.5,-1596.4 L-14105.0,-1595.8 L-14043.1,-1588.1 L-14053.6,-1583.4 Z" fill="#efe6d2" stroke="#b7ad98" stroke-width="1"/><path d="M-15494.6,-1590.7 L-15658.9,-1578.9 L-15789.6,-1592.1 L-15718.2,-1605.3 L-15589.5,-1609.5 L-15465.2,-1603.0 L-15494.6,-1590.7 Z" fill="#efe6d2" stroke="#b7ad98" stroke-width="1"/><path d="M-3602.4,-1597.2 L-3799.3,-1580.3 L-3954.8,-1589.9 L-3894.0,-1600.5 L-3947.2,-1613.7 L-3764.6,-1621.9 L-3729.6,-1606.5 L-3602.4,-1597.2 Z" fill="#efe6d2" stroke="#b7ad98" stroke-width="1"/><path d="M-15448.4,-1628.0 L-15555.8,-1619.9 L-15702.2,-1620.0 L-15700.7,-1625.8 L-15610.3,-1638.2 L-15563.0,-1636.3 L-15448.4,-1628.0 Z" fill="#efe6d2" stroke="#b7ad98" stroke-width="1"/><path d="M-14229.0,-1605.5 L-14359.5,-1597.0 L-14431.3,-1606.6 L-14469.0,-1622.0 L-14476.0,-1639.1 L-14361.9,-1637.4 L-14310.5,-1634.7 L-14205.2,-1620.4 L-14229.0,-1605.5 Z" fill="#efe6d2" stroke="#b7ad98" stroke-width="1"/><path d="M-14601.9,-1616.5 L-14567.6,-1599.4 L-14711.5,-1604.0 L-14856.6,-1617.3 L-15052.9,-1618.8 L-14967.7,-1631.1 L-15074.3,-1641.0 L-15080.7,-1656.8 L-14907.7,-1651.2 L-14669.3,-1636.1 L-14601.9,-1616.5 Z" fill="#efe6d2" stroke="#b7ad98" stroke-width="1"/><path d="M3480.4,-1615.8 L2983.5,-1599.9 L3144.5,-1654.0 L3216.9,-1658.6 L3283.2,-1655.9 L3506.6,-1632.5 L3480.4,-1615.8 Z" fill="#efe6d2" stroke="#b7ad98" stroke-width="1"/><path d="M-4172.9,-1673.2 L-3882.7,-1642.5 L-4104.6,-1626.3 L-4153.5,-1596.0 L-4230.9,-1588.3 L-4272.8,-1554.2 L-4379.1,-1552.5 L-4568.6,-1577.7 L-4488.7,-1592.3 L-4620.8,-1604.2 L-4792.6,-1639.0 L-4861.1,-1671.2 L-4620.8,-1686.0 L-4572.5,-1671.5 L-4447.0,-1672.1 L-4413.5,-1686.2 L-4284.1,-1687.6 L-4172.9,-1673.2 Z" fill="#efe6d2" stroke="#b7ad98" stroke-width="1"/><path d="M-3538.6,-1702.3 L-3365.9,-1687.9 L-3496.6,-1665.7 L-3752.2,-1660.8 L-4012.2,-1667.7 L-4027.9,-1679.0 L-4154.4,-1679.8 L-4250.8,-1698.7 L-3978.6,-1710.2 L-3850.6,-1700.3 L-3761.5,-1712.6 L-3538.6,-1702.3 Z" fill="#efe6d2" stroke="#b7ad98" stroke-width="1"/><path d="M-1274.2,-1708.1 L-1392.6,-1702.6 L-1471.8,-1699.5 L-1484.1,-1692.8 L-1587.1,-1685.9 L-1682.6,-1695.7 L-1632.4,-1708.6 L-1828.6,-1709.8 L-1656.5,-1717.3 L-1522.6,-1717.8 L-1504.6,-1706.7 L-1454.0,-1716.6 L-1370.9,-1723.4 L-1240.1,-1714.3 L-1274.2,-1708.1 Z" fill="#efe6d2" stroke="#b7ad98" stroke-width="1"/><path d="M3027.7,-1639.5 L2835.4,-1634.3 L2589.9,-1646.2 L2443.6,-1661.9 L2375.9,-1691.5 L2255.7,-1699.6 L2484.5,-1727.7 L2675.2,-1737.0 L2846.5,-1716.3 L3049.5,-1676.5 L3027.7,-1639.5 Z" fill="#efe6d2" stroke="#b7ad98" stroke-width="1"/><path d="M-13452.4,-1671.5 L-13346.2,-1658.2 L-13467.2,-1646.0 L-13630.1,-1615.0 L-13786.0,-1612.0 L-13968.7,-1617.3 L-14063.4,-1634.1 L-14062.0,-1649.0 L-13992.4,-1660.0 L-14153.6,-1659.7 L-14250.7,-1673.4 L-14306.6,-1692.0 L-14245.4,-1710.3 L-14184.4,-1722.9 L-14094.0,-1725.8 L-14132.5,-1735.2 L-13927.5,-1737.3 L-13815.0,-1715.3 L-13666.6,-1706.5 L-13522.1,-1698.7 L-13452.4,-1671.5 Z" fill="#efe6d2" stroke="#b7ad98" stroke-width="1"/><path d="M-11819.9,-1813.4 L-11584.3,-1810.2 L-11395.1,-1804.9 L-11233.7,-1793.8 L-11237.6,-1782.8 L-11452.7,-1764.9 L-11666.0,-1756.6 L-11745.7,-1747.4 L-11553.7,-1747.6 L-11761.7,-1722.6 L-11905.4,-1710.9 L-12056.2,-1677.3 L-12238.0,-1670.5 L-12294.2,-1662.1 L-12561.1,-1657.7 L-12439.5,-1652.5 L-12500.5,-1645.1 L-12427.6,-1624.8 L-12511.3,-1610.7 L-12647.5,-1599.1 L-12689.3,-1582.9 L-12812.4,-1570.6 L-12800.1,-1561.3 L-12649.5,-1562.9 L-12647.6,-1552.9 L-12883.1,-1528.2 L-13113.4,-1539.5 L-13372.4,-1533.1 L-13503.6,-1538.1 L-13670.2,-1540.3 L-13681.3,-1560.0 L-13518.3,-1569.3 L-13561.7,-1599.1 L-13508.0,-1602.0 L-13272.3,-1584.2 L-13392.5,-1610.6 L-13535.5,-1618.5 L-13464.1,-1634.4 L-13307.8,-1644.2 L-13282.7,-1658.6 L-13407.2,-1674.7 L-13444.7,-1695.9 L-13203.7,-1694.1 L-13134.1,-1689.6 L-12996.5,-1704.7 L-13195.0,-1709.4 L-13503.5,-1706.8 L-13659.3,-1720.8 L-13732.7,-1737.4 L-13835.7,-1749.5 L-13855.0,-1763.5 L-13723.9,-1771.4 L-13621.0,-1772.7 L-13448.0,-1779.4 L-13318.4,-1794.7 L-13209.1,-1792.6 L-13113.9,-1781.1 L-13046.9,-1803.3 L-12930.6,-1809.9 L-12772.5,-1814.4 L-12503.1,-1816.1 L-12456.2,-1811.7 L-12201.7,-1818.7 L-12010.8,-1816.0 L-11819.9,-1813.4 Z" fill="#efe6d2" stroke="#b7ad98" stroke-width="1"/><path d="M-8170.6,-1830.5 L-7619.3,-1797.8 L-7782.0,-1782.0 L-8119.2,-1780.1 L-8593.7,-1776.1 L-8549.3,-1768.8 L-8237.3,-1773.3 L-7971.8,-1759.1 L-7800.7,-1771.7 L-7727.4,-1756.9 L-7824.1,-1733.0 L-7599.7,-1748.3 L-7171.7,-1764.3 L-6907.4,-1756.3 L-6857.9,-1738.7 L-7217.3,-1709.4 L-7267.1,-1699.9 L-7548.8,-1692.8 L-7344.7,-1690.8 L-7447.8,-1660.8 L-7518.7,-1634.1 L-7516.0,-1588.3 L-7410.1,-1561.4 L-7547.8,-1559.7 L-7692.8,-1546.7 L-7530.1,-1524.9 L-7509.4,-1489.9 L-7603.6,-1486.1 L-7489.5,-1450.6 L-7685.3,-1447.7 L-7583.0,-1430.9 L-7611.9,-1416.4 L-7736.2,-1410.0 L-7859.1,-1409.9 L-7748.6,-1382.0 L-7747.4,-1363.7 L-7921.9,-1380.7 L-7967.2,-1369.7 L-7848.2,-1359.4 L-7732.7,-1334.3 L-7699.3,-1301.1 L-7856.4,-1293.2 L-7924.4,-1309.0 L-8033.4,-1332.7 L-8003.2,-1304.7 L-8105.6,-1283.1 L-7873.3,-1281.3 L-7751.8,-1279.1 L-7988.1,-1243.2 L-8227.7,-1210.8 L-8485.6,-1196.6 L-8582.8,-1196.4 L-8674.0,-1180.5 L-8796.6,-1137.0 L-8986.2,-1108.2 L-9047.1,-1106.5 L-9164.5,-1096.4 L-9291.2,-1086.8 L-9366.7,-1061.3 L-9367.9,-1032.4 L-9412.5,-1005.4 L-9556.2,-972.4 L-9520.7,-940.3 L-9560.4,-906.2 L-9605.5,-866.0 L-9729.7,-863.5 L-9859.8,-897.1 L-10036.1,-897.3 L-10121.6,-919.9 L-10180.4,-960.1 L-10333.2,-1011.3 L-10377.8,-1038.2 L-10389.9,-1075.2 L-10512.0,-1113.2 L-10480.2,-1143.5 L-10539.1,-1158.0 L-10451.9,-1206.1 L-10319.2,-1221.5 L-10284.4,-1238.7 L-10266.0,-1270.8 L-10366.7,-1256.3 L-10414.7,-1250.1 L-10493.9,-1244.3 L-10602.0,-1257.7 L-10607.9,-1285.7 L-10573.4,-1307.6 L-10491.6,-1308.2 L-10311.7,-1297.2 L-10463.3,-1323.4 L-10542.1,-1337.5 L-10629.9,-1331.7 L-10703.5,-1341.9 L-10605.1,-1380.3 L-10658.7,-1395.6 L-10728.7,-1424.0 L-10834.7,-1467.7 L-10947.0,-1483.7 L-10946.0,-1500.9 L-11182.5,-1525.0 L-11369.6,-1528.0 L-11605.2,-1526.4 L-11820.3,-1523.4 L-11922.6,-1536.5 L-12075.8,-1562.4 L-11844.3,-1575.3 L-11666.9,-1577.5 L-12044.1,-1588.2 L-12242.8,-1605.0 L-12230.6,-1621.0 L-11896.9,-1640.8 L-11574.1,-1660.6 L-11540.0,-1675.6 L-11777.9,-1690.4 L-11701.0,-1706.8 L-11395.9,-1735.5 L-11267.6,-1739.9 L-11304.4,-1758.4 L-11095.6,-1769.3 L-10824.5,-1775.7 L-10553.6,-1776.1 L-10457.4,-1763.3 L-10223.6,-1786.0 L-10013.2,-1770.6 L-9889.5,-1767.3 L-9706.4,-1753.9 L-9916.0,-1776.1 L-9903.9,-1793.7 L-9608.0,-1818.3 L-9298.7,-1816.5 L-9186.2,-1831.7 L-8874.7,-1835.6 L-8170.6,-1830.5 Z" fill="#efe6d2" stroke="#b7ad98" stroke-width="1"/><path d="M249.3,227.1 L335.7,202.4 L527.9,207.8 L758.8,299.2 L989.8,374.5 L1064.7,476.6 L1263.0,494.8" fill="none" stroke="#1e5f8a" stroke-width="4" stroke-dasharray="10 6" marker-end="url(#n)"/><path d="M758.8,299.2 L941.3,286.8" fill="none" stroke="#1e5f8a" stroke-width="4" stroke-dasharray="10 6" marker-end="url(#n)"/><path d="M1064.7,476.6 L1109.6,528.9 L1312.4,580.0" fill="none" stroke="#1e5f8a" stroke-width="4" stroke-dasharray="10 6" marker-end="url(#n)"/><path d="M249.3,227.1 L388.6,307.4 L518.2,365.1 L490.0,480.4 L437.1,612.1 L423.9,748.8" fill="none" stroke="#b85a1a" stroke-width="4" stroke-dasharray="2 7" marker-end="url(#s)"/><path d="M527.9,207.8 L688.3,185.9" fill="none" stroke="#8a2e2e" stroke-width="4" stroke-dasharray="4 5" marker-end="url(#f)"/><text x="71.3" y="159.2" class="region">AFGHANISTAN</text><text x="670.7" y="332.1" class="region">PUNJAB</text><text x="529.6" y="529.8" class="region">THAR DESERT</text><text x="617.8" y="686.2" class="region">GUJARAT</text><text x="1199.6" y="443.3" class="region">GANGA PLAIN</text><circle cx="249.3" cy="227.1" r="7" fill="#1e3a4c"/><text x="261.3" y="215.1" class="place">Ghazni</text><circle cx="527.9" cy="207.8" r="4.5" fill="#1e2a2e"/><text x="537.9" y="193.8" class="place">Peshawar, 1001</text><circle cx="595.7" cy="214.8" r="4.5" fill="#1e2a2e"/><text x="587.7" y="236.8" class="place">Waihind, 1008</text><circle cx="518.2" cy="365.1" r="4.5" fill="#1e2a2e"/><text x="400.2" y="371.1" class="place">Multan, 1006</text><circle cx="941.3" cy="286.8" r="4.5" fill="#1e2a2e"/><text x="949.3" y="274.8" class="place">Nagarkot, 1009</text><circle cx="989.8" cy="374.5" r="4.5" fill="#1e2a2e"/><text x="999.8" y="362.5" class="place">Thanesar, 1014</text><circle cx="1064.7" cy="476.6" r="4.5" fill="#1e2a2e"/><text x="986.7" y="496.6" class="place">Mathura</text><circle cx="1263.0" cy="494.8" r="4.5" fill="#1e2a2e"/><text x="1271.0" y="484.8" class="place">Kannauj, 1018</text><circle cx="1109.6" cy="528.9" r="4.5" fill="#1e2a2e"/><text x="1039.6" y="546.9" class="place">Gwalior</text><circle cx="1312.4" cy="580.0" r="4.5" fill="#1e2a2e"/><text x="1320.4" y="596.0" class="place">Kalinjar, 1022</text><circle cx="423.9" cy="748.8" r="4.5" fill="#1e2a2e"/><text x="435.9" y="752.8" class="place">Somnath, 1025</text><circle cx="1024.1" cy="430.5" r="4.5" fill="#8a2e2e"/><text x="1034.1" y="422.5" class="place">Delhi — not his capital</text><circle cx="697.1" cy="179.8" r="4.5" fill="#8a2e2e"/><text x="705.1" y="171.8" class="place">Lohkot, 1015, failed</text></g><rect x="36" y="118" width="1428" height="700" fill="none" stroke="#c4bba8"/><path d="M36,848 h46" stroke="#1e5f8a" stroke-width="4" stroke-dasharray="10 6"/><text x="92" y="854" class="small">North India, 1001-1022: Peshawar, Kangra, Thanesar, Mathura, Kannauj, Gwalior, Kalinjar</text><path d="M36,882 h46" stroke="#b85a1a" stroke-width="4" stroke-dasharray="2 7"/><text x="92" y="888" class="small">Gujarat, 1025-26: Ghazni to Multan, across the desert, to Somnath. Return attacked in Sindh, 1027.</text><path d="M36,916 h46" stroke="#8a2e2e" stroke-width="4" stroke-dasharray="4 5"/><text x="92" y="922" class="small">Failed push toward Kashmir, 1015. Red is a stop, not a conquest.</text><text x="36" y="958" class="small">He annexed the Punjab frontier and raided beyond it. The deep raids ended back at Ghazni. Coastline: Natural Earth, public domain.</text></svg>